<?xml version="1.0" encoding="UTF-8" standalone="no"?>
<!DOCTYPE svg PUBLIC "-//W3C//DTD SVG 1.1//EN"
 "http://www.w3.org/Graphics/SVG/1.1/DTD/svg11.dtd">
<!-- Generated by graphviz version 6.0.1 (20220911.1526)
 -->
<!-- Title: G Pages: 1 -->
<svg width="1417pt" height="791pt"
 viewBox="0.00 0.00 1417.20 790.64" xmlns="http://www.w3.org/2000/svg" xmlns:xlink="http://www.w3.org/1999/xlink">
<g id="graph0" class="graph" transform="scale(1 1) rotate(0) translate(21.6 769.04)">
<title>G</title>
<polygon fill="#111111" stroke="none" points="-21.6,21.6 -21.6,-769.04 1395.6,-769.04 1395.6,21.6 -21.6,21.6"/>
<!-- abstracts/AbstractRenderer.ts -->
<g id="node1" class="node">
<title>abstracts/AbstractRenderer.ts</title>
<path fill="none" stroke="#cfffac" d="M1366.33,-360.44C1366.33,-360.44 1187.67,-360.44 1187.67,-360.44 1183.83,-360.44 1180,-356.61 1180,-352.78 1180,-352.78 1180,-345.11 1180,-345.11 1180,-341.28 1183.83,-337.44 1187.67,-337.44 1187.67,-337.44 1366.33,-337.44 1366.33,-337.44 1370.17,-337.44 1374,-341.28 1374,-345.11 1374,-345.11 1374,-352.78 1374,-352.78 1374,-356.61 1370.17,-360.44 1366.33,-360.44"/>
<text text-anchor="middle" x="1277" y="-345.24" font-family="Arial" font-size="14.00" fill="#cfffac">abstracts/AbstractRenderer.ts</text>
</g>
<!-- cart.scss -->
<g id="node2" class="node">
<title>cart.scss</title>
<path fill="none" stroke="#cfffac" d="M172.33,-507.44C172.33,-507.44 117.67,-507.44 117.67,-507.44 113.83,-507.44 110,-503.61 110,-499.78 110,-499.78 110,-492.11 110,-492.11 110,-488.28 113.83,-484.44 117.67,-484.44 117.67,-484.44 172.33,-484.44 172.33,-484.44 176.17,-484.44 180,-488.28 180,-492.11 180,-492.11 180,-499.78 180,-499.78 180,-503.61 176.17,-507.44 172.33,-507.44"/>
<text text-anchor="middle" x="145" y="-492.24" font-family="Arial" font-size="14.00" fill="#cfffac">cart.scss</text>
</g>
<!-- cart/Cart.ts -->
<g id="node3" class="node">
<title>cart/Cart.ts</title>
<path fill="none" stroke="#c6c5fe" d="M820.33,-633.44C820.33,-633.44 752.67,-633.44 752.67,-633.44 748.83,-633.44 745,-629.61 745,-625.78 745,-625.78 745,-618.11 745,-618.11 745,-614.28 748.83,-610.44 752.67,-610.44 752.67,-610.44 820.33,-610.44 820.33,-610.44 824.17,-610.44 828,-614.28 828,-618.11 828,-618.11 828,-625.78 828,-625.78 828,-629.61 824.17,-633.44 820.33,-633.44"/>
<text text-anchor="middle" x="786.5" y="-618.24" font-family="Arial" font-size="14.00" fill="#c6c5fe">cart/Cart.ts</text>
</g>
<!-- cart/data/cart.ts -->
<g id="node4" class="node">
<title>cart/data/cart.ts</title>
<path fill="none" stroke="#c6c5fe" d="M1087.33,-747.44C1087.33,-747.44 992.67,-747.44 992.67,-747.44 988.83,-747.44 985,-743.61 985,-739.78 985,-739.78 985,-732.11 985,-732.11 985,-728.28 988.83,-724.44 992.67,-724.44 992.67,-724.44 1087.33,-724.44 1087.33,-724.44 1091.17,-724.44 1095,-728.28 1095,-732.11 1095,-732.11 1095,-739.78 1095,-739.78 1095,-743.61 1091.17,-747.44 1087.33,-747.44"/>
<text text-anchor="middle" x="1040" y="-732.24" font-family="Arial" font-size="14.00" fill="#c6c5fe">cart/data/cart.ts</text>
</g>
<!-- cart/Cart.ts&#45;&gt;cart/data/cart.ts -->
<g id="edge1" class="edge">
<title>cart/Cart.ts&#45;&gt;cart/data/cart.ts</title>
<path fill="none" stroke="#757575" d="M828.01,-620.89C851.17,-622.25 879.57,-627.46 900,-642.94 928.83,-664.79 907.25,-693.99 936,-715.94 947.18,-724.48 961,-729.69 974.83,-732.8"/>
<polygon fill="#757575" stroke="#757575" points="974.4,-736.28 984.88,-734.71 975.71,-729.4 974.4,-736.28"/>
</g>
<!-- shop/data/products.ts -->
<g id="node5" class="node">
<title>shop/data/products.ts</title>
<path fill="none" stroke="#cfffac" d="M1342.33,-533.44C1342.33,-533.44 1211.67,-533.44 1211.67,-533.44 1207.83,-533.44 1204,-529.61 1204,-525.78 1204,-525.78 1204,-518.11 1204,-518.11 1204,-514.28 1207.83,-510.44 1211.67,-510.44 1211.67,-510.44 1342.33,-510.44 1342.33,-510.44 1346.17,-510.44 1350,-514.28 1350,-518.11 1350,-518.11 1350,-525.78 1350,-525.78 1350,-529.61 1346.17,-533.44 1342.33,-533.44"/>
<text text-anchor="middle" x="1277" y="-518.24" font-family="Arial" font-size="14.00" fill="#cfffac">shop/data/products.ts</text>
</g>
<!-- cart/Cart.ts&#45;&gt;shop/data/products.ts -->
<g id="edge2" class="edge">
<title>cart/Cart.ts&#45;&gt;shop/data/products.ts</title>
<path fill="none" stroke="#757575" d="M828.14,-614.86C849.54,-611.1 876.2,-606.35 900,-601.94 1008.59,-581.83 1036.17,-578.79 1144,-554.94 1169.93,-549.21 1198.55,-542.14 1222.49,-536.03"/>
<polygon fill="#757575" stroke="#757575" points="1223.63,-539.35 1232.44,-533.47 1221.89,-532.57 1223.63,-539.35"/>
</g>
<!-- utils/Subscribe.ts -->
<g id="node6" class="node">
<title>utils/Subscribe.ts</title>
<path fill="none" stroke="#cfffac" d="M1091.83,-176.44C1091.83,-176.44 988.17,-176.44 988.17,-176.44 984.33,-176.44 980.5,-172.61 980.5,-168.78 980.5,-168.78 980.5,-161.11 980.5,-161.11 980.5,-157.28 984.33,-153.44 988.17,-153.44 988.17,-153.44 1091.83,-153.44 1091.83,-153.44 1095.67,-153.44 1099.5,-157.28 1099.5,-161.11 1099.5,-161.11 1099.5,-168.78 1099.5,-168.78 1099.5,-172.61 1095.67,-176.44 1091.83,-176.44"/>
<text text-anchor="middle" x="1040" y="-161.24" font-family="Arial" font-size="14.00" fill="#cfffac">utils/Subscribe.ts</text>
</g>
<!-- cart/Cart.ts&#45;&gt;utils/Subscribe.ts -->
<g id="edge3" class="edge">
<title>cart/Cart.ts&#45;&gt;utils/Subscribe.ts</title>
<path fill="none" stroke="#757575" d="M828.12,-626.01C852.52,-626.05 882.19,-621.41 900,-601.94 962.04,-534.14 876.1,-259.64 936,-189.94 944.98,-179.5 957.51,-173.02 970.74,-169.09"/>
<polygon fill="#757575" stroke="#757575" points="971.62,-172.48 980.47,-166.66 969.92,-165.69 971.62,-172.48"/>
</g>
<!-- utils/object.ts -->
<g id="node7" class="node">
<title>utils/object.ts</title>
<path fill="none" stroke="#c6c5fe" d="M1079.83,-706.44C1079.83,-706.44 1000.17,-706.44 1000.17,-706.44 996.33,-706.44 992.5,-702.61 992.5,-698.78 992.5,-698.78 992.5,-691.11 992.5,-691.11 992.5,-687.28 996.33,-683.44 1000.17,-683.44 1000.17,-683.44 1079.83,-683.44 1079.83,-683.44 1083.67,-683.44 1087.5,-687.28 1087.5,-691.11 1087.5,-691.11 1087.5,-698.78 1087.5,-698.78 1087.5,-702.61 1083.67,-706.44 1079.83,-706.44"/>
<text text-anchor="middle" x="1040" y="-691.24" font-family="Arial" font-size="14.00" fill="#c6c5fe">utils/object.ts</text>
</g>
<!-- cart/Cart.ts&#45;&gt;utils/object.ts -->
<g id="edge4" class="edge">
<title>cart/Cart.ts&#45;&gt;utils/object.ts</title>
<path fill="none" stroke="#757575" d="M828.24,-627.8C849.78,-631.33 876.55,-636.42 900,-642.94 935.75,-652.89 975.27,-668.1 1003,-679.51"/>
<polygon fill="#757575" stroke="#757575" points="1001.71,-682.76 1012.29,-683.37 1004.4,-676.3 1001.71,-682.76"/>
</g>
<!-- cart/data/cart.ts&#45;&gt;shop/data/products.ts -->
<g id="edge8" class="edge">
<title>cart/data/cart.ts&#45;&gt;shop/data/products.ts</title>
<path fill="none" stroke="#757575" d="M1095.09,-733.41C1111.83,-730.62 1129.63,-725.41 1144,-715.94 1161.26,-704.57 1234.13,-589.28 1263.58,-542"/>
<polygon fill="#757575" stroke="#757575" points="1266.55,-543.85 1268.86,-533.51 1260.61,-540.15 1266.55,-543.85"/>
</g>
<!-- utils/array.ts -->
<g id="node27" class="node">
<title>utils/array.ts</title>
<path fill="none" stroke="#cfffac" d="M1313.83,-706.44C1313.83,-706.44 1240.17,-706.44 1240.17,-706.44 1236.33,-706.44 1232.5,-702.61 1232.5,-698.78 1232.5,-698.78 1232.5,-691.11 1232.5,-691.11 1232.5,-687.28 1236.33,-683.44 1240.17,-683.44 1240.17,-683.44 1313.83,-683.44 1313.83,-683.44 1317.67,-683.44 1321.5,-687.28 1321.5,-691.11 1321.5,-691.11 1321.5,-698.78 1321.5,-698.78 1321.5,-702.61 1317.67,-706.44 1313.83,-706.44"/>
<text text-anchor="middle" x="1277" y="-691.24" font-family="Arial" font-size="14.00" fill="#cfffac">utils/array.ts</text>
</g>
<!-- utils/object.ts&#45;&gt;utils/array.ts -->
<g id="edge56" class="edge">
<title>utils/object.ts&#45;&gt;utils/array.ts</title>
<path fill="none" stroke="#757575" d="M1087.71,-694.94C1126.37,-694.94 1181.34,-694.94 1221.91,-694.94"/>
<polygon fill="#757575" stroke="#757575" points="1222.16,-698.44 1232.16,-694.94 1222.16,-691.44 1222.16,-698.44"/>
</g>
<!-- cart/CartController.ts -->
<g id="node8" class="node">
<title>cart/CartController.ts</title>
<path fill="none" stroke="#c6c5fe" d="M603.83,-668.44C603.83,-668.44 479.17,-668.44 479.17,-668.44 475.33,-668.44 471.5,-664.61 471.5,-660.78 471.5,-660.78 471.5,-653.11 471.5,-653.11 471.5,-649.28 475.33,-645.44 479.17,-645.44 479.17,-645.44 603.83,-645.44 603.83,-645.44 607.67,-645.44 611.5,-649.28 611.5,-653.11 611.5,-653.11 611.5,-660.78 611.5,-660.78 611.5,-664.61 607.67,-668.44 603.83,-668.44"/>
<text text-anchor="middle" x="541.5" y="-653.24" font-family="Arial" font-size="14.00" fill="#c6c5fe">cart/CartController.ts</text>
</g>
<!-- cart/CartController.ts&#45;&gt;cart/Cart.ts -->
<g id="edge5" class="edge">
<title>cart/CartController.ts&#45;&gt;cart/Cart.ts</title>
<path fill="none" stroke="#757575" d="M611.81,-646.96C651.01,-641.31 699.15,-634.38 734.8,-629.24"/>
<polygon fill="#757575" stroke="#757575" points="735.58,-632.67 744.98,-627.78 734.58,-625.74 735.58,-632.67"/>
</g>
<!-- cart/views/CartRenderer.ts -->
<g id="node9" class="node">
<title>cart/views/CartRenderer.ts</title>
<path fill="none" stroke="#c6c5fe" d="M866.83,-674.44C866.83,-674.44 706.17,-674.44 706.17,-674.44 702.33,-674.44 698.5,-670.61 698.5,-666.78 698.5,-666.78 698.5,-659.11 698.5,-659.11 698.5,-655.28 702.33,-651.44 706.17,-651.44 706.17,-651.44 866.83,-651.44 866.83,-651.44 870.67,-651.44 874.5,-655.28 874.5,-659.11 874.5,-659.11 874.5,-666.78 874.5,-666.78 874.5,-670.61 870.67,-674.44 866.83,-674.44"/>
<text text-anchor="middle" x="786.5" y="-659.24" font-family="Arial" font-size="14.00" fill="#c6c5fe">cart/views/CartRenderer.ts</text>
</g>
<!-- cart/CartController.ts&#45;&gt;cart/views/CartRenderer.ts -->
<g id="edge6" class="edge">
<title>cart/CartController.ts&#45;&gt;cart/views/CartRenderer.ts</title>
<path fill="none" stroke="#757575" d="M611.81,-658.65C635.59,-659.24 662.66,-659.91 688.23,-660.54"/>
<polygon fill="#757575" stroke="#757575" points="688.25,-664.04 698.33,-660.79 688.42,-657.04 688.25,-664.04"/>
</g>
<!-- cart/views/CartTotalRenderer.ts -->
<g id="node10" class="node">
<title>cart/views/CartTotalRenderer.ts</title>
<path fill="none" stroke="#c6c5fe" d="M880.83,-592.44C880.83,-592.44 692.17,-592.44 692.17,-592.44 688.33,-592.44 684.5,-588.61 684.5,-584.78 684.5,-584.78 684.5,-577.11 684.5,-577.11 684.5,-573.28 688.33,-569.44 692.17,-569.44 692.17,-569.44 880.83,-569.44 880.83,-569.44 884.67,-569.44 888.5,-573.28 888.5,-577.11 888.5,-577.11 888.5,-584.78 888.5,-584.78 888.5,-588.61 884.67,-592.44 880.83,-592.44"/>
<text text-anchor="middle" x="786.5" y="-577.24" font-family="Arial" font-size="14.00" fill="#c6c5fe">cart/views/CartTotalRenderer.ts</text>
</g>
<!-- cart/CartController.ts&#45;&gt;cart/views/CartTotalRenderer.ts -->
<g id="edge7" class="edge">
<title>cart/CartController.ts&#45;&gt;cart/views/CartTotalRenderer.ts</title>
<path fill="none" stroke="#757575" d="M565.99,-645.23C591.69,-632.85 634.38,-613.54 673,-601.94 682.04,-599.23 691.6,-596.8 701.17,-594.64"/>
<polygon fill="#757575" stroke="#757575" points="702.09,-598.02 711.13,-592.49 700.62,-591.18 702.09,-598.02"/>
</g>
<!-- cart/views/CartRenderer.ts&#45;&gt;abstracts/AbstractRenderer.ts -->
<g id="edge14" class="edge">
<title>cart/views/CartRenderer.ts&#45;&gt;abstracts/AbstractRenderer.ts</title>
<path fill="none" stroke="#757575" d="M874.52,-654.55C883.51,-651.64 892.19,-647.85 900,-642.94 923.18,-628.37 915.59,-611.19 936,-592.94 1015.07,-522.24 1058.88,-539.22 1144,-475.94 1189.14,-442.39 1234.91,-394.58 1258.9,-368.23"/>
<polygon fill="#757575" stroke="#757575" points="1261.79,-370.24 1265.89,-360.47 1256.59,-365.56 1261.79,-370.24"/>
</g>
<!-- cart/views/CartRenderer.ts&#45;&gt;cart/data/cart.ts -->
<g id="edge15" class="edge">
<title>cart/views/CartRenderer.ts&#45;&gt;cart/data/cart.ts</title>
<path fill="none" stroke="#757575" d="M815.84,-674.5C845.42,-686.23 893.36,-704.27 936,-715.94 948.53,-719.37 962.07,-722.45 975.09,-725.09"/>
<polygon fill="#757575" stroke="#757575" points="974.43,-728.53 984.92,-727.03 975.79,-721.66 974.43,-728.53"/>
</g>
<!-- cart/views/CartRenderer.ts&#45;&gt;shop/data/products.ts -->
<g id="edge16" class="edge">
<title>cart/views/CartRenderer.ts&#45;&gt;shop/data/products.ts</title>
<path fill="none" stroke="#757575" d="M874.29,-651.41C947.61,-640.09 1054.65,-619.82 1144,-587.94 1181.18,-574.68 1221.42,-553.47 1247.57,-538.69"/>
<polygon fill="#757575" stroke="#757575" points="1249.59,-541.56 1256.54,-533.56 1246.12,-535.49 1249.59,-541.56"/>
</g>
<!-- cart/views/CartTotalRenderer.ts&#45;&gt;abstracts/AbstractRenderer.ts -->
<g id="edge17" class="edge">
<title>cart/views/CartTotalRenderer.ts&#45;&gt;abstracts/AbstractRenderer.ts</title>
<path fill="none" stroke="#757575" d="M811.72,-569.44C892.05,-531.29 1149.78,-408.89 1242.43,-364.89"/>
<polygon fill="#757575" stroke="#757575" points="1244.1,-367.97 1251.63,-360.52 1241.09,-361.65 1244.1,-367.97"/>
</g>
<!-- cart/index.ts -->
<g id="node11" class="node">
<title>cart/index.ts</title>
<path fill="none" stroke="#c6c5fe" d="M356.33,-648.44C356.33,-648.44 282.67,-648.44 282.67,-648.44 278.83,-648.44 275,-644.61 275,-640.78 275,-640.78 275,-633.11 275,-633.11 275,-629.28 278.83,-625.44 282.67,-625.44 282.67,-625.44 356.33,-625.44 356.33,-625.44 360.17,-625.44 364,-629.28 364,-633.11 364,-633.11 364,-640.78 364,-640.78 364,-644.61 360.17,-648.44 356.33,-648.44"/>
<text text-anchor="middle" x="319.5" y="-633.24" font-family="Arial" font-size="14.00" fill="#c6c5fe">cart/index.ts</text>
</g>
<!-- cart/index.ts&#45;&gt;cart/Cart.ts -->
<g id="edge9" class="edge">
<title>cart/index.ts&#45;&gt;cart/Cart.ts</title>
<path fill="none" stroke="#757575" d="M364.25,-635.53C450.67,-632.74 642.87,-626.54 734.71,-623.58"/>
<polygon fill="#757575" stroke="#757575" points="734.99,-627.07 744.88,-623.25 734.77,-620.08 734.99,-627.07"/>
</g>
<!-- cart/index.ts&#45;&gt;cart/data/cart.ts -->
<g id="edge11" class="edge">
<title>cart/index.ts&#45;&gt;cart/data/cart.ts</title>
<path fill="none" stroke="#757575" d="M339.67,-648.51C363.6,-662.3 406.24,-684.75 446,-694.94 633.39,-742.98 864.3,-742.65 974.53,-739.03"/>
<polygon fill="#757575" stroke="#757575" points="974.94,-742.52 984.81,-738.67 974.69,-735.52 974.94,-742.52"/>
</g>
<!-- cart/index.ts&#45;&gt;cart/CartController.ts -->
<g id="edge10" class="edge">
<title>cart/index.ts&#45;&gt;cart/CartController.ts</title>
<path fill="none" stroke="#757575" d="M364.23,-640.92C391.94,-643.44 428.59,-646.77 461.29,-649.74"/>
<polygon fill="#757575" stroke="#757575" points="461.03,-653.23 471.3,-650.65 461.66,-646.26 461.03,-653.23"/>
</g>
<!-- cart/index.ts&#45;&gt;cart/views/CartRenderer.ts -->
<g id="edge12" class="edge">
<title>cart/index.ts&#45;&gt;cart/views/CartRenderer.ts</title>
<path fill="none" stroke="#757575" d="M347.31,-648.44C372.31,-658.5 410.91,-672.36 446,-677.94 533.19,-691.82 634.45,-684.35 703.54,-675.75"/>
<polygon fill="#757575" stroke="#757575" points="704.02,-679.21 713.49,-674.47 703.13,-672.27 704.02,-679.21"/>
</g>
<!-- cart/index.ts&#45;&gt;cart/views/CartTotalRenderer.ts -->
<g id="edge13" class="edge">
<title>cart/index.ts&#45;&gt;cart/views/CartTotalRenderer.ts</title>
<path fill="none" stroke="#757575" d="M364.25,-631.67C435.83,-623.05 579.98,-605.69 679.57,-593.7"/>
<polygon fill="#757575" stroke="#757575" points="680.15,-597.15 689.66,-592.48 679.32,-590.2 680.15,-597.15"/>
</g>
<!-- main.ts -->
<g id="node12" class="node">
<title>main.ts</title>
<path fill="none" stroke="#c6c5fe" d="M53.33,-427.44C53.33,-427.44 7.67,-427.44 7.67,-427.44 3.83,-427.44 0,-423.61 0,-419.78 0,-419.78 0,-412.11 0,-412.11 0,-408.28 3.83,-404.44 7.67,-404.44 7.67,-404.44 53.33,-404.44 53.33,-404.44 57.17,-404.44 61,-408.28 61,-412.11 61,-412.11 61,-419.78 61,-419.78 61,-423.61 57.17,-427.44 53.33,-427.44"/>
<text text-anchor="middle" x="30.5" y="-412.24" font-family="Arial" font-size="14.00" fill="#c6c5fe">main.ts</text>
</g>
<!-- main.ts&#45;&gt;cart.scss -->
<g id="edge18" class="edge">
<title>main.ts&#45;&gt;cart.scss</title>
<path fill="none" stroke="#757575" d="M44.48,-427.87C57.31,-439.34 77.75,-456.84 97,-469.94 101.72,-473.16 106.88,-476.32 111.98,-479.27"/>
<polygon fill="#757575" stroke="#757575" points="110.59,-482.5 121.02,-484.33 114.01,-476.39 110.59,-482.5"/>
</g>
<!-- main.ts&#45;&gt;cart/index.ts -->
<g id="edge19" class="edge">
<title>main.ts&#45;&gt;cart/index.ts</title>
<path fill="none" stroke="#757575" d="M61.33,-425.45C105.2,-439.63 183.03,-465.67 193,-474.94 221.55,-501.49 206.16,-523.35 229,-554.94 247.28,-580.23 274.36,-603.7 293.94,-619"/>
<polygon fill="#757575" stroke="#757575" points="292.02,-621.93 302.09,-625.23 296.27,-616.37 292.02,-621.93"/>
</g>
<!-- router/index.ts -->
<g id="node13" class="node">
<title>router/index.ts</title>
<path fill="none" stroke="#c6c5fe" d="M362.83,-62.44C362.83,-62.44 276.17,-62.44 276.17,-62.44 272.33,-62.44 268.5,-58.61 268.5,-54.78 268.5,-54.78 268.5,-47.11 268.5,-47.11 268.5,-43.28 272.33,-39.44 276.17,-39.44 276.17,-39.44 362.83,-39.44 362.83,-39.44 366.67,-39.44 370.5,-43.28 370.5,-47.11 370.5,-47.11 370.5,-54.78 370.5,-54.78 370.5,-58.61 366.67,-62.44 362.83,-62.44"/>
<text text-anchor="middle" x="319.5" y="-47.24" font-family="Arial" font-size="14.00" fill="#c6c5fe">router/index.ts</text>
</g>
<!-- main.ts&#45;&gt;router/index.ts -->
<g id="edge20" class="edge">
<title>main.ts&#45;&gt;router/index.ts</title>
<path fill="none" stroke="#757575" d="M61.15,-406.55C105.2,-392.35 183.75,-366.02 193,-355.94 233.54,-311.78 207.24,-281.81 229,-225.94 251.67,-167.73 287.69,-103.29 306.37,-71.29"/>
<polygon fill="#757575" stroke="#757575" points="309.52,-72.84 311.57,-62.44 303.48,-69.29 309.52,-72.84"/>
</g>
<!-- shop/index.ts -->
<g id="node14" class="node">
<title>shop/index.ts</title>
<path fill="none" stroke="#c6c5fe" d="M185.33,-427.44C185.33,-427.44 104.67,-427.44 104.67,-427.44 100.83,-427.44 97,-423.61 97,-419.78 97,-419.78 97,-412.11 97,-412.11 97,-408.28 100.83,-404.44 104.67,-404.44 104.67,-404.44 185.33,-404.44 185.33,-404.44 189.17,-404.44 193,-408.28 193,-412.11 193,-412.11 193,-419.78 193,-419.78 193,-423.61 189.17,-427.44 185.33,-427.44"/>
<text text-anchor="middle" x="145" y="-412.24" font-family="Arial" font-size="14.00" fill="#c6c5fe">shop/index.ts</text>
</g>
<!-- main.ts&#45;&gt;shop/index.ts -->
<g id="edge21" class="edge">
<title>main.ts&#45;&gt;shop/index.ts</title>
<path fill="none" stroke="#757575" d="M61.06,-415.94C69,-415.94 77.88,-415.94 86.78,-415.94"/>
<polygon fill="#757575" stroke="#757575" points="86.8,-419.44 96.8,-415.94 86.8,-412.44 86.8,-419.44"/>
</g>
<!-- style.css -->
<g id="node15" class="node">
<title>style.css</title>
<path fill="none" stroke="#cfffac" d="M171.33,-347.44C171.33,-347.44 118.67,-347.44 118.67,-347.44 114.83,-347.44 111,-343.61 111,-339.78 111,-339.78 111,-332.11 111,-332.11 111,-328.28 114.83,-324.44 118.67,-324.44 118.67,-324.44 171.33,-324.44 171.33,-324.44 175.17,-324.44 179,-328.28 179,-332.11 179,-332.11 179,-339.78 179,-339.78 179,-343.61 175.17,-347.44 171.33,-347.44"/>
<text text-anchor="middle" x="145" y="-332.24" font-family="Arial" font-size="14.00" fill="#cfffac">style.css</text>
</g>
<!-- main.ts&#45;&gt;style.css -->
<g id="edge22" class="edge">
<title>main.ts&#45;&gt;style.css</title>
<path fill="none" stroke="#757575" d="M44.48,-404.02C57.31,-392.54 77.75,-375.04 97,-361.94 101.72,-358.73 106.88,-355.57 111.98,-352.61"/>
<polygon fill="#757575" stroke="#757575" points="114.01,-355.49 121.02,-347.56 110.59,-349.38 114.01,-355.49"/>
</g>
<!-- router/NavigationController.ts -->
<g id="node16" class="node">
<title>router/NavigationController.ts</title>
<path fill="none" stroke="#c6c5fe" d="M629.33,-82.44C629.33,-82.44 453.67,-82.44 453.67,-82.44 449.83,-82.44 446,-78.61 446,-74.78 446,-74.78 446,-67.11 446,-67.11 446,-63.28 449.83,-59.44 453.67,-59.44 453.67,-59.44 629.33,-59.44 629.33,-59.44 633.17,-59.44 637,-63.28 637,-67.11 637,-67.11 637,-74.78 637,-74.78 637,-78.61 633.17,-82.44 629.33,-82.44"/>
<text text-anchor="middle" x="541.5" y="-67.24" font-family="Arial" font-size="14.00" fill="#c6c5fe">router/NavigationController.ts</text>
</g>
<!-- router/index.ts&#45;&gt;router/NavigationController.ts -->
<g id="edge29" class="edge">
<title>router/index.ts&#45;&gt;router/NavigationController.ts</title>
<path fill="none" stroke="#757575" d="M370.7,-55.51C390.14,-57.27 413.16,-59.37 435.88,-61.43"/>
<polygon fill="#757575" stroke="#757575" points="435.66,-64.93 445.93,-62.35 436.29,-57.95 435.66,-64.93"/>
</g>
<!-- router/Router.ts -->
<g id="node17" class="node">
<title>router/Router.ts</title>
<path fill="none" stroke="#c6c5fe" d="M833.83,-42.44C833.83,-42.44 739.17,-42.44 739.17,-42.44 735.33,-42.44 731.5,-38.61 731.5,-34.78 731.5,-34.78 731.5,-27.11 731.5,-27.11 731.5,-23.28 735.33,-19.44 739.17,-19.44 739.17,-19.44 833.83,-19.44 833.83,-19.44 837.67,-19.44 841.5,-23.28 841.5,-27.11 841.5,-27.11 841.5,-34.78 841.5,-34.78 841.5,-38.61 837.67,-42.44 833.83,-42.44"/>
<text text-anchor="middle" x="786.5" y="-27.24" font-family="Arial" font-size="14.00" fill="#c6c5fe">router/Router.ts</text>
</g>
<!-- router/index.ts&#45;&gt;router/Router.ts -->
<g id="edge30" class="edge">
<title>router/index.ts&#45;&gt;router/Router.ts</title>
<path fill="none" stroke="#757575" d="M370.7,-48.78C455.59,-45.13 627.35,-37.74 721.02,-33.72"/>
<polygon fill="#757575" stroke="#757575" points="721.37,-37.2 731.21,-33.28 721.07,-30.21 721.37,-37.2"/>
</g>
<!-- router/data/routes.ts -->
<g id="node18" class="node">
<title>router/data/routes.ts</title>
<path fill="none" stroke="#cfffac" d="M1100.83,-62.44C1100.83,-62.44 979.17,-62.44 979.17,-62.44 975.33,-62.44 971.5,-58.61 971.5,-54.78 971.5,-54.78 971.5,-47.11 971.5,-47.11 971.5,-43.28 975.33,-39.44 979.17,-39.44 979.17,-39.44 1100.83,-39.44 1100.83,-39.44 1104.67,-39.44 1108.5,-43.28 1108.5,-47.11 1108.5,-47.11 1108.5,-54.78 1108.5,-54.78 1108.5,-58.61 1104.67,-62.44 1100.83,-62.44"/>
<text text-anchor="middle" x="1040" y="-47.24" font-family="Arial" font-size="14.00" fill="#cfffac">router/data/routes.ts</text>
</g>
<!-- router/index.ts&#45;&gt;router/data/routes.ts -->
<g id="edge31" class="edge">
<title>router/index.ts&#45;&gt;router/data/routes.ts</title>
<path fill="none" stroke="#757575" d="M370.76,-40.2C471.6,-20.24 705.59,18.13 900,-9.94 934.38,-14.91 972.1,-26.44 999.56,-36.01"/>
<polygon fill="#757575" stroke="#757575" points="998.59,-39.38 1009.19,-39.44 1000.94,-32.79 998.59,-39.38"/>
</g>
<!-- shop/index.ts&#45;&gt;shop/data/products.ts -->
<g id="edge48" class="edge">
<title>shop/index.ts&#45;&gt;shop/data/products.ts</title>
<path fill="none" stroke="#757575" d="M177.82,-427.53C182.94,-429.57 188.15,-431.74 193,-433.94 209.48,-441.41 212.2,-446.22 229,-452.94 362.58,-506.37 396.64,-540.94 540.5,-540.94 540.5,-540.94 540.5,-540.94 787.5,-540.94 930.34,-540.94 1096.49,-532.73 1193.57,-527.1"/>
<polygon fill="#757575" stroke="#757575" points="1193.84,-530.6 1203.61,-526.52 1193.43,-523.61 1193.84,-530.6"/>
</g>
<!-- shop/InsertCart.ts -->
<g id="node21" class="node">
<title>shop/InsertCart.ts</title>
<path fill="none" stroke="#c6c5fe" d="M595.33,-362.44C595.33,-362.44 487.67,-362.44 487.67,-362.44 483.83,-362.44 480,-358.61 480,-354.78 480,-354.78 480,-347.11 480,-347.11 480,-343.28 483.83,-339.44 487.67,-339.44 487.67,-339.44 595.33,-339.44 595.33,-339.44 599.17,-339.44 603,-343.28 603,-347.11 603,-347.11 603,-354.78 603,-354.78 603,-358.61 599.17,-362.44 595.33,-362.44"/>
<text text-anchor="middle" x="541.5" y="-347.24" font-family="Arial" font-size="14.00" fill="#c6c5fe">shop/InsertCart.ts</text>
</g>
<!-- shop/index.ts&#45;&gt;shop/InsertCart.ts -->
<g id="edge46" class="edge">
<title>shop/index.ts&#45;&gt;shop/InsertCart.ts</title>
<path fill="none" stroke="#757575" d="M188.03,-404.38C201.09,-401.03 215.58,-397.58 229,-394.94 310.99,-378.83 406.23,-366.26 469.6,-358.76"/>
<polygon fill="#757575" stroke="#757575" points="470.36,-362.19 479.88,-357.55 469.54,-355.24 470.36,-362.19"/>
</g>
<!-- shop/views/MiniCartRenderer.ts -->
<g id="node24" class="node">
<title>shop/views/MiniCartRenderer.ts</title>
<path fill="none" stroke="#c6c5fe" d="M1136.33,-360.44C1136.33,-360.44 943.67,-360.44 943.67,-360.44 939.83,-360.44 936,-356.61 936,-352.78 936,-352.78 936,-345.11 936,-345.11 936,-341.28 939.83,-337.44 943.67,-337.44 943.67,-337.44 1136.33,-337.44 1136.33,-337.44 1140.17,-337.44 1144,-341.28 1144,-345.11 1144,-345.11 1144,-352.78 1144,-352.78 1144,-356.61 1140.17,-360.44 1136.33,-360.44"/>
<text text-anchor="middle" x="1040" y="-345.24" font-family="Arial" font-size="14.00" fill="#c6c5fe">shop/views/MiniCartRenderer.ts</text>
</g>
<!-- shop/index.ts&#45;&gt;shop/views/MiniCartRenderer.ts -->
<g id="edge49" class="edge">
<title>shop/index.ts&#45;&gt;shop/views/MiniCartRenderer.ts</title>
<path fill="none" stroke="#757575" d="M185.76,-427.54C199.35,-430.96 214.72,-434.25 229,-435.94 308.88,-445.43 329.64,-439.71 410,-435.94 628.5,-425.71 685.21,-431.3 900,-389.94 933.12,-383.57 969.66,-372.63 996.96,-363.65"/>
<polygon fill="#757575" stroke="#757575" points="998.2,-366.93 1006.58,-360.45 995.99,-360.29 998.2,-366.93"/>
</g>
<!-- shop/InsertCartController.ts -->
<g id="node25" class="node">
<title>shop/InsertCartController.ts</title>
<path fill="none" stroke="#c6c5fe" d="M402.33,-427.44C402.33,-427.44 236.67,-427.44 236.67,-427.44 232.83,-427.44 229,-423.61 229,-419.78 229,-419.78 229,-412.11 229,-412.11 229,-408.28 232.83,-404.44 236.67,-404.44 236.67,-404.44 402.33,-404.44 402.33,-404.44 406.17,-404.44 410,-408.28 410,-412.11 410,-412.11 410,-419.78 410,-419.78 410,-423.61 406.17,-427.44 402.33,-427.44"/>
<text text-anchor="middle" x="319.5" y="-412.24" font-family="Arial" font-size="14.00" fill="#c6c5fe">shop/InsertCartController.ts</text>
</g>
<!-- shop/index.ts&#45;&gt;shop/InsertCartController.ts -->
<g id="edge47" class="edge">
<title>shop/index.ts&#45;&gt;shop/InsertCartController.ts</title>
<path fill="none" stroke="#757575" d="M193.14,-415.94C201.25,-415.94 209.96,-415.94 218.86,-415.94"/>
<polygon fill="#757575" stroke="#757575" points="218.97,-419.44 228.97,-415.94 218.97,-412.44 218.97,-419.44"/>
</g>
<!-- shop/views/ProductsRenderer.ts -->
<g id="node26" class="node">
<title>shop/views/ProductsRenderer.ts</title>
<path fill="none" stroke="#c6c5fe" d="M883.83,-240.44C883.83,-240.44 689.17,-240.44 689.17,-240.44 685.33,-240.44 681.5,-236.61 681.5,-232.78 681.5,-232.78 681.5,-225.11 681.5,-225.11 681.5,-221.28 685.33,-217.44 689.17,-217.44 689.17,-217.44 883.83,-217.44 883.83,-217.44 887.67,-217.44 891.5,-221.28 891.5,-225.11 891.5,-225.11 891.5,-232.78 891.5,-232.78 891.5,-236.61 887.67,-240.44 883.83,-240.44"/>
<text text-anchor="middle" x="786.5" y="-225.24" font-family="Arial" font-size="14.00" fill="#c6c5fe">shop/views/ProductsRenderer.ts</text>
</g>
<!-- shop/index.ts&#45;&gt;shop/views/ProductsRenderer.ts -->
<g id="edge50" class="edge">
<title>shop/index.ts&#45;&gt;shop/views/ProductsRenderer.ts</title>
<path fill="none" stroke="#757575" d="M168.37,-404.39C176.29,-400.08 185.17,-395.01 193,-389.94 209.79,-379.08 211.96,-373.41 229,-362.94 320.63,-306.66 342.33,-284.49 446,-255.94 519.2,-235.78 604.38,-229.06 671.11,-227.36"/>
<polygon fill="#757575" stroke="#757575" points="671.32,-230.85 681.24,-227.13 671.16,-223.85 671.32,-230.85"/>
</g>
<!-- router/NavigationController.ts&#45;&gt;utils/Subscribe.ts -->
<g id="edge26" class="edge">
<title>router/NavigationController.ts&#45;&gt;utils/Subscribe.ts</title>
<path fill="none" stroke="#757575" d="M562.05,-82.5C586.9,-96.57 631.57,-119.84 673,-130.94 773.97,-158 895.56,-164.35 970.06,-165.42"/>
<polygon fill="#757575" stroke="#757575" points="970.21,-168.92 980.25,-165.53 970.29,-161.92 970.21,-168.92"/>
</g>
<!-- router/NavigationController.ts&#45;&gt;router/Router.ts -->
<g id="edge23" class="edge">
<title>router/NavigationController.ts&#45;&gt;router/Router.ts</title>
<path fill="none" stroke="#757575" d="M612.46,-59.43C646.77,-53.78 687.8,-47.02 721.3,-41.51"/>
<polygon fill="#757575" stroke="#757575" points="722.14,-44.92 731.44,-39.84 721.01,-38.01 722.14,-44.92"/>
</g>
<!-- router/NavigationController.ts&#45;&gt;router/data/routes.ts -->
<g id="edge24" class="edge">
<title>router/NavigationController.ts&#45;&gt;router/data/routes.ts</title>
<path fill="none" stroke="#757575" d="M637.06,-67.13C731.1,-63.35 873.67,-57.6 961.32,-54.07"/>
<polygon fill="#757575" stroke="#757575" points="961.61,-57.56 971.47,-53.66 961.33,-50.57 961.61,-57.56"/>
</g>
<!-- router/views/NavigationRenderer.ts -->
<g id="node19" class="node">
<title>router/views/NavigationRenderer.ts</title>
<path fill="none" stroke="#c6c5fe" d="M892.33,-122.44C892.33,-122.44 680.67,-122.44 680.67,-122.44 676.83,-122.44 673,-118.61 673,-114.78 673,-114.78 673,-107.11 673,-107.11 673,-103.28 676.83,-99.44 680.67,-99.44 680.67,-99.44 892.33,-99.44 892.33,-99.44 896.17,-99.44 900,-103.28 900,-107.11 900,-107.11 900,-114.78 900,-114.78 900,-118.61 896.17,-122.44 892.33,-122.44"/>
<text text-anchor="middle" x="786.5" y="-107.24" font-family="Arial" font-size="14.00" fill="#c6c5fe">router/views/NavigationRenderer.ts</text>
</g>
<!-- router/NavigationController.ts&#45;&gt;router/views/NavigationRenderer.ts -->
<g id="edge25" class="edge">
<title>router/NavigationController.ts&#45;&gt;router/views/NavigationRenderer.ts</title>
<path fill="none" stroke="#757575" d="M612.46,-82.46C641.56,-87.25 675.5,-92.84 705.57,-97.79"/>
<polygon fill="#757575" stroke="#757575" points="705.18,-101.27 715.61,-99.44 706.31,-94.36 705.18,-101.27"/>
</g>
<!-- router/Router.ts&#45;&gt;utils/Subscribe.ts -->
<g id="edge28" class="edge">
<title>router/Router.ts&#45;&gt;utils/Subscribe.ts</title>
<path fill="none" stroke="#757575" d="M809.95,-42.62C832.69,-54.47 868.85,-73.37 900,-89.94 937.63,-109.96 980.8,-133.32 1008.92,-148.58"/>
<polygon fill="#757575" stroke="#757575" points="1007.39,-151.73 1017.85,-153.43 1010.73,-145.58 1007.39,-151.73"/>
</g>
<!-- router/Router.ts&#45;&gt;router/data/routes.ts -->
<g id="edge27" class="edge">
<title>router/Router.ts&#45;&gt;router/data/routes.ts</title>
<path fill="none" stroke="#757575" d="M841.76,-35.26C876.62,-38.03 922.46,-41.68 961.18,-44.75"/>
<polygon fill="#757575" stroke="#757575" points="961.13,-48.26 971.37,-45.56 961.68,-41.28 961.13,-48.26"/>
</g>
<!-- router/views/NavigationRenderer.ts&#45;&gt;abstracts/AbstractRenderer.ts -->
<g id="edge32" class="edge">
<title>router/views/NavigationRenderer.ts&#45;&gt;abstracts/AbstractRenderer.ts</title>
<path fill="none" stroke="#757575" d="M866.6,-99.41C943.19,-92.36 1059.78,-92.83 1144,-143.94 1214.89,-186.97 1254.58,-284.19 1269.31,-327.46"/>
<polygon fill="#757575" stroke="#757575" points="1266.08,-328.83 1272.52,-337.24 1272.73,-326.65 1266.08,-328.83"/>
</g>
<!-- router/views/NavigationRenderer.ts&#45;&gt;router/data/routes.ts -->
<g id="edge33" class="edge">
<title>router/views/NavigationRenderer.ts&#45;&gt;router/data/routes.ts</title>
<path fill="none" stroke="#757575" d="M837.93,-99.43C857.35,-94.96 879.72,-89.77 900,-84.94 927.2,-78.47 957.36,-71.12 982.61,-64.91"/>
<polygon fill="#757575" stroke="#757575" points="983.51,-68.29 992.39,-62.5 981.84,-61.49 983.51,-68.29"/>
</g>
<!-- utils/OnEmit.ts -->
<g id="node20" class="node">
<title>utils/OnEmit.ts</title>
<path fill="none" stroke="#cfffac" d="M1084.83,-222.44C1084.83,-222.44 995.17,-222.44 995.17,-222.44 991.33,-222.44 987.5,-218.61 987.5,-214.78 987.5,-214.78 987.5,-207.11 987.5,-207.11 987.5,-203.28 991.33,-199.44 995.17,-199.44 995.17,-199.44 1084.83,-199.44 1084.83,-199.44 1088.67,-199.44 1092.5,-203.28 1092.5,-207.11 1092.5,-207.11 1092.5,-214.78 1092.5,-214.78 1092.5,-218.61 1088.67,-222.44 1084.83,-222.44"/>
<text text-anchor="middle" x="1040" y="-207.24" font-family="Arial" font-size="14.00" fill="#cfffac">utils/OnEmit.ts</text>
</g>
<!-- router/views/NavigationRenderer.ts&#45;&gt;utils/OnEmit.ts -->
<g id="edge34" class="edge">
<title>router/views/NavigationRenderer.ts&#45;&gt;utils/OnEmit.ts</title>
<path fill="none" stroke="#757575" d="M807.54,-122.67C835.5,-138.64 888.19,-167.23 936,-184.94 949.15,-189.81 963.58,-194.09 977.36,-197.68"/>
<polygon fill="#757575" stroke="#757575" points="976.7,-201.13 987.26,-200.18 978.42,-194.34 976.7,-201.13"/>
</g>
<!-- shop/InsertCart.ts&#45;&gt;shop/data/products.ts -->
<g id="edge37" class="edge">
<title>shop/InsertCart.ts&#45;&gt;shop/data/products.ts</title>
<path fill="none" stroke="#757575" d="M594.47,-362.51C698.8,-385.81 941.09,-440.31 1144,-488.94 1169.33,-495.01 1197.32,-501.98 1220.99,-507.94"/>
<polygon fill="#757575" stroke="#757575" points="1220.29,-511.37 1230.84,-510.42 1222.01,-504.58 1220.29,-511.37"/>
</g>
<!-- shop/InsertCart.ts&#45;&gt;utils/Subscribe.ts -->
<g id="edge39" class="edge">
<title>shop/InsertCart.ts&#45;&gt;utils/Subscribe.ts</title>
<path fill="none" stroke="#757575" d="M549.16,-339.1C565.81,-310.76 612.29,-239.09 673,-207.94 723.36,-182.11 878.94,-171.44 970.23,-167.32"/>
<polygon fill="#757575" stroke="#757575" points="970.66,-170.81 980.49,-166.87 970.35,-163.81 970.66,-170.81"/>
</g>
<!-- shop/api/dummyBuyAPI.ts -->
<g id="node22" class="node">
<title>shop/api/dummyBuyAPI.ts</title>
<path fill="none" stroke="#c6c5fe" d="M866.83,-322.44C866.83,-322.44 706.17,-322.44 706.17,-322.44 702.33,-322.44 698.5,-318.61 698.5,-314.78 698.5,-314.78 698.5,-307.11 698.5,-307.11 698.5,-303.28 702.33,-299.44 706.17,-299.44 706.17,-299.44 866.83,-299.44 866.83,-299.44 870.67,-299.44 874.5,-303.28 874.5,-307.11 874.5,-307.11 874.5,-314.78 874.5,-314.78 874.5,-318.61 870.67,-322.44 866.83,-322.44"/>
<text text-anchor="middle" x="786.5" y="-307.24" font-family="Arial" font-size="14.00" fill="#c6c5fe">shop/api/dummyBuyAPI.ts</text>
</g>
<!-- shop/InsertCart.ts&#45;&gt;shop/api/dummyBuyAPI.ts -->
<g id="edge35" class="edge">
<title>shop/InsertCart.ts&#45;&gt;shop/api/dummyBuyAPI.ts</title>
<path fill="none" stroke="#757575" d="M603.19,-340.95C634.02,-335.88 671.89,-329.64 705.11,-324.18"/>
<polygon fill="#757575" stroke="#757575" points="705.96,-327.58 715.26,-322.51 704.82,-320.68 705.96,-327.58"/>
</g>
<!-- shop/api/dummyProductAPI.ts -->
<g id="node23" class="node">
<title>shop/api/dummyProductAPI.ts</title>
<path fill="none" stroke="#c6c5fe" d="M878.83,-281.44C878.83,-281.44 694.17,-281.44 694.17,-281.44 690.33,-281.44 686.5,-277.61 686.5,-273.78 686.5,-273.78 686.5,-266.11 686.5,-266.11 686.5,-262.28 690.33,-258.44 694.17,-258.44 694.17,-258.44 878.83,-258.44 878.83,-258.44 882.67,-258.44 886.5,-262.28 886.5,-266.11 886.5,-266.11 886.5,-273.78 886.5,-273.78 886.5,-277.61 882.67,-281.44 878.83,-281.44"/>
<text text-anchor="middle" x="786.5" y="-266.24" font-family="Arial" font-size="14.00" fill="#c6c5fe">shop/api/dummyProductAPI.ts</text>
</g>
<!-- shop/InsertCart.ts&#45;&gt;shop/api/dummyProductAPI.ts -->
<g id="edge36" class="edge">
<title>shop/InsertCart.ts&#45;&gt;shop/api/dummyProductAPI.ts</title>
<path fill="none" stroke="#757575" d="M563.06,-339.26C588.22,-325.46 632.47,-302.77 673,-289.94 680.31,-287.63 687.99,-285.55 695.74,-283.71"/>
<polygon fill="#757575" stroke="#757575" points="696.6,-287.1 705.58,-281.48 695.06,-280.27 696.6,-287.1"/>
</g>
<!-- shop/InsertCart.ts&#45;&gt;shop/views/MiniCartRenderer.ts -->
<g id="edge38" class="edge">
<title>shop/InsertCart.ts&#45;&gt;shop/views/MiniCartRenderer.ts</title>
<path fill="none" stroke="#757575" d="M603.38,-350.7C683.37,-350.38 825.4,-349.8 925.49,-349.4"/>
<polygon fill="#757575" stroke="#757575" points="925.67,-352.9 935.65,-349.36 925.64,-345.9 925.67,-352.9"/>
</g>
<!-- shop/api/dummyBuyAPI.ts&#45;&gt;shop/views/MiniCartRenderer.ts -->
<g id="edge44" class="edge">
<title>shop/api/dummyBuyAPI.ts&#45;&gt;shop/views/MiniCartRenderer.ts</title>
<path fill="none" stroke="#757575" d="M863.64,-322.45C891.7,-326.69 923.7,-331.52 952.6,-335.89"/>
<polygon fill="#757575" stroke="#757575" points="952.27,-339.38 962.68,-337.41 953.32,-332.46 952.27,-339.38"/>
</g>
<!-- shop/api/dummyProductAPI.ts&#45;&gt;shop/views/MiniCartRenderer.ts -->
<g id="edge45" class="edge">
<title>shop/api/dummyProductAPI.ts&#45;&gt;shop/views/MiniCartRenderer.ts</title>
<path fill="none" stroke="#757575" d="M876.25,-281.49C884.44,-283.81 892.48,-286.6 900,-289.94 918.52,-298.18 917.99,-308.64 936,-317.94 948.94,-324.63 963.56,-330.11 977.63,-334.52"/>
<polygon fill="#757575" stroke="#757575" points="976.67,-337.88 987.26,-337.39 978.68,-331.18 976.67,-337.88"/>
</g>
<!-- shop/views/MiniCartRenderer.ts&#45;&gt;abstracts/AbstractRenderer.ts -->
<g id="edge51" class="edge">
<title>shop/views/MiniCartRenderer.ts&#45;&gt;abstracts/AbstractRenderer.ts</title>
<path fill="none" stroke="#757575" d="M1144.07,-348.94C1152.49,-348.94 1161.01,-348.94 1169.45,-348.94"/>
<polygon fill="#757575" stroke="#757575" points="1169.7,-352.44 1179.7,-348.94 1169.7,-345.44 1169.7,-352.44"/>
</g>
<!-- shop/views/MiniCartRenderer.ts&#45;&gt;shop/data/products.ts -->
<g id="edge52" class="edge">
<title>shop/views/MiniCartRenderer.ts&#45;&gt;shop/data/products.ts</title>
<path fill="none" stroke="#757575" d="M1110.58,-360.5C1122.23,-364.09 1133.82,-368.79 1144,-374.94 1198.25,-407.7 1242.95,-469.74 1263.63,-501.74"/>
<polygon fill="#757575" stroke="#757575" points="1260.73,-503.7 1269.03,-510.28 1266.64,-499.96 1260.73,-503.7"/>
</g>
<!-- shop/InsertCartController.ts&#45;&gt;shop/data/products.ts -->
<g id="edge41" class="edge">
<title>shop/InsertCartController.ts&#45;&gt;shop/data/products.ts</title>
<path fill="none" stroke="#757575" d="M410.39,-425.91C595.3,-446.43 1015.83,-493.08 1193.9,-512.83"/>
<polygon fill="#757575" stroke="#757575" points="1193.67,-516.33 1203.99,-513.95 1194.44,-509.37 1193.67,-516.33"/>
</g>
<!-- shop/InsertCartController.ts&#45;&gt;shop/InsertCart.ts -->
<g id="edge40" class="edge">
<title>shop/InsertCartController.ts&#45;&gt;shop/InsertCart.ts</title>
<path fill="none" stroke="#757575" d="M359.58,-404.4C396.46,-393.5 451.88,-377.13 491.66,-365.37"/>
<polygon fill="#757575" stroke="#757575" points="492.82,-368.68 501.42,-362.49 490.83,-361.97 492.82,-368.68"/>
</g>
<!-- shop/InsertCartController.ts&#45;&gt;shop/views/MiniCartRenderer.ts -->
<g id="edge42" class="edge">
<title>shop/InsertCartController.ts&#45;&gt;shop/views/MiniCartRenderer.ts</title>
<path fill="none" stroke="#757575" d="M410.41,-408.78C524.4,-399.53 726.92,-382.52 900,-364.94 910.26,-363.9 920.93,-362.77 931.61,-361.6"/>
<polygon fill="#757575" stroke="#757575" points="932.27,-365.04 941.82,-360.46 931.5,-358.09 932.27,-365.04"/>
</g>
<!-- shop/InsertCartController.ts&#45;&gt;shop/views/ProductsRenderer.ts -->
<g id="edge43" class="edge">
<title>shop/InsertCartController.ts&#45;&gt;shop/views/ProductsRenderer.ts</title>
<path fill="none" stroke="#757575" d="M334.79,-404.31C357.31,-386.42 402.94,-351.91 446,-329.94 541.42,-281.26 569.46,-276.41 673,-248.94 681.8,-246.61 691.06,-244.47 700.34,-242.53"/>
<polygon fill="#757575" stroke="#757575" points="701.27,-245.91 710.38,-240.5 699.89,-239.05 701.27,-245.91"/>
</g>
<!-- shop/views/ProductsRenderer.ts&#45;&gt;abstracts/AbstractRenderer.ts -->
<g id="edge53" class="edge">
<title>shop/views/ProductsRenderer.ts&#45;&gt;abstracts/AbstractRenderer.ts</title>
<path fill="none" stroke="#757575" d="M891.67,-239.77C963.62,-248.94 1060.94,-264.71 1144,-289.94 1180.15,-300.92 1219.42,-319.39 1245.65,-332.74"/>
<polygon fill="#757575" stroke="#757575" points="1244.2,-335.93 1254.69,-337.4 1247.41,-329.71 1244.2,-335.93"/>
</g>
<!-- shop/views/ProductsRenderer.ts&#45;&gt;shop/data/products.ts -->
<g id="edge54" class="edge">
<title>shop/views/ProductsRenderer.ts&#45;&gt;shop/data/products.ts</title>
<path fill="none" stroke="#757575" d="M878.94,-240.47C886.24,-242.8 893.36,-245.6 900,-248.94 919.66,-258.84 916.53,-272.68 936,-282.94 1019.68,-327.03 1065.58,-275.07 1144,-327.94 1161.14,-339.5 1234.08,-454.68 1263.56,-501.9"/>
<polygon fill="#757575" stroke="#757575" points="1260.59,-503.76 1268.85,-510.39 1266.53,-500.05 1260.59,-503.76"/>
</g>
<!-- shop/views/ProductsRenderer.ts&#45;&gt;utils/OnEmit.ts -->
<g id="edge55" class="edge">
<title>shop/views/ProductsRenderer.ts&#45;&gt;utils/OnEmit.ts</title>
<path fill="none" stroke="#757575" d="M891.61,-221.49C920.72,-219.41 951.42,-217.21 977.23,-215.36"/>
<polygon fill="#757575" stroke="#757575" points="977.51,-218.85 987.23,-214.65 977.01,-211.87 977.51,-218.85"/>
</g>
</g>
</svg>
