<?xml version="1.0" encoding="UTF-8" standalone="no"?>
<!DOCTYPE svg PUBLIC "-//W3C//DTD SVG 1.1//EN"
 "http://www.w3.org/Graphics/SVG/1.1/DTD/svg11.dtd">
<!-- Generated by graphviz version 6.0.1 (20220911.1526)
 -->
<!-- Title: G Pages: 1 -->
<svg width="1417pt" height="733pt"
 viewBox="0.00 0.00 1417.20 732.55" xmlns="http://www.w3.org/2000/svg" xmlns:xlink="http://www.w3.org/1999/xlink">
<g id="graph0" class="graph" transform="scale(1 1) rotate(0) translate(21.6 710.95)">
<title>G</title>
<polygon fill="#111111" stroke="none" points="-21.6,21.6 -21.6,-710.95 1395.6,-710.95 1395.6,21.6 -21.6,21.6"/>
<!-- abstracts/AbstractRenderer.ts -->
<g id="node1" class="node">
<title>abstracts/AbstractRenderer.ts</title>
<path fill="none" stroke="#cfffac" d="M1366.33,-340.35C1366.33,-340.35 1187.67,-340.35 1187.67,-340.35 1183.83,-340.35 1180,-336.51 1180,-332.68 1180,-332.68 1180,-325.01 1180,-325.01 1180,-321.18 1183.83,-317.35 1187.67,-317.35 1187.67,-317.35 1366.33,-317.35 1366.33,-317.35 1370.17,-317.35 1374,-321.18 1374,-325.01 1374,-325.01 1374,-332.68 1374,-332.68 1374,-336.51 1370.17,-340.35 1366.33,-340.35"/>
<text text-anchor="middle" x="1277" y="-325.15" font-family="Arial" font-size="14.00" fill="#cfffac">abstracts/AbstractRenderer.ts</text>
</g>
<!-- cart.scss -->
<g id="node2" class="node">
<title>cart.scss</title>
<path fill="none" stroke="#cfffac" d="M172.33,-487.35C172.33,-487.35 117.67,-487.35 117.67,-487.35 113.83,-487.35 110,-483.51 110,-479.68 110,-479.68 110,-472.01 110,-472.01 110,-468.18 113.83,-464.35 117.67,-464.35 117.67,-464.35 172.33,-464.35 172.33,-464.35 176.17,-464.35 180,-468.18 180,-472.01 180,-472.01 180,-479.68 180,-479.68 180,-483.51 176.17,-487.35 172.33,-487.35"/>
<text text-anchor="middle" x="145" y="-472.15" font-family="Arial" font-size="14.00" fill="#cfffac">cart.scss</text>
</g>
<!-- cart/Cart.ts -->
<g id="node3" class="node">
<title>cart/Cart.ts</title>
<path fill="none" stroke="#c6c5fe" d="M820.33,-654.35C820.33,-654.35 752.67,-654.35 752.67,-654.35 748.83,-654.35 745,-650.51 745,-646.68 745,-646.68 745,-639.01 745,-639.01 745,-635.18 748.83,-631.35 752.67,-631.35 752.67,-631.35 820.33,-631.35 820.33,-631.35 824.17,-631.35 828,-635.18 828,-639.01 828,-639.01 828,-646.68 828,-646.68 828,-650.51 824.17,-654.35 820.33,-654.35"/>
<text text-anchor="middle" x="786.5" y="-639.15" font-family="Arial" font-size="14.00" fill="#c6c5fe">cart/Cart.ts</text>
</g>
<!-- cart/data/cart.ts -->
<g id="node4" class="node">
<title>cart/data/cart.ts</title>
<path fill="none" stroke="#c6c5fe" d="M1087.33,-648.35C1087.33,-648.35 992.67,-648.35 992.67,-648.35 988.83,-648.35 985,-644.51 985,-640.68 985,-640.68 985,-633.01 985,-633.01 985,-629.18 988.83,-625.35 992.67,-625.35 992.67,-625.35 1087.33,-625.35 1087.33,-625.35 1091.17,-625.35 1095,-629.18 1095,-633.01 1095,-633.01 1095,-640.68 1095,-640.68 1095,-644.51 1091.17,-648.35 1087.33,-648.35"/>
<text text-anchor="middle" x="1040" y="-633.15" font-family="Arial" font-size="14.00" fill="#c6c5fe">cart/data/cart.ts</text>
</g>
<!-- cart/Cart.ts&#45;&gt;cart/data/cart.ts -->
<g id="edge1" class="edge">
<title>cart/Cart.ts&#45;&gt;cart/data/cart.ts</title>
<path fill="none" stroke="#757575" d="M828.19,-641.88C867.74,-640.93 928.42,-639.49 974.54,-638.39"/>
<polygon fill="#757575" stroke="#757575" points="974.83,-641.88 984.74,-638.14 974.66,-634.88 974.83,-641.88"/>
</g>
<!-- shop/data/products.ts -->
<g id="node5" class="node">
<title>shop/data/products.ts</title>
<path fill="none" stroke="#cfffac" d="M1342.33,-513.35C1342.33,-513.35 1211.67,-513.35 1211.67,-513.35 1207.83,-513.35 1204,-509.51 1204,-505.68 1204,-505.68 1204,-498.01 1204,-498.01 1204,-494.18 1207.83,-490.35 1211.67,-490.35 1211.67,-490.35 1342.33,-490.35 1342.33,-490.35 1346.17,-490.35 1350,-494.18 1350,-498.01 1350,-498.01 1350,-505.68 1350,-505.68 1350,-509.51 1346.17,-513.35 1342.33,-513.35"/>
<text text-anchor="middle" x="1277" y="-498.15" font-family="Arial" font-size="14.00" fill="#cfffac">shop/data/products.ts</text>
</g>
<!-- cart/Cart.ts&#45;&gt;shop/data/products.ts -->
<g id="edge2" class="edge">
<title>cart/Cart.ts&#45;&gt;shop/data/products.ts</title>
<path fill="none" stroke="#757575" d="M828.2,-636.07C849.61,-632.39 876.28,-627.63 900,-622.85 1008.98,-600.89 1039.3,-605.2 1144,-567.85 1181.18,-554.58 1221.42,-533.38 1247.57,-518.59"/>
<polygon fill="#757575" stroke="#757575" points="1249.59,-521.47 1256.54,-513.47 1246.12,-515.39 1249.59,-521.47"/>
</g>
<!-- utils/Subscribe.ts -->
<g id="node6" class="node">
<title>utils/Subscribe.ts</title>
<path fill="none" stroke="#cfffac" d="M1091.83,-220.35C1091.83,-220.35 988.17,-220.35 988.17,-220.35 984.33,-220.35 980.5,-216.51 980.5,-212.68 980.5,-212.68 980.5,-205.01 980.5,-205.01 980.5,-201.18 984.33,-197.35 988.17,-197.35 988.17,-197.35 1091.83,-197.35 1091.83,-197.35 1095.67,-197.35 1099.5,-201.18 1099.5,-205.01 1099.5,-205.01 1099.5,-212.68 1099.5,-212.68 1099.5,-216.51 1095.67,-220.35 1091.83,-220.35"/>
<text text-anchor="middle" x="1040" y="-205.15" font-family="Arial" font-size="14.00" fill="#cfffac">utils/Subscribe.ts</text>
</g>
<!-- cart/Cart.ts&#45;&gt;utils/Subscribe.ts -->
<g id="edge3" class="edge">
<title>cart/Cart.ts&#45;&gt;utils/Subscribe.ts</title>
<path fill="none" stroke="#757575" d="M828.22,-646.75C852.5,-646.69 882,-642 900,-622.85 948.25,-571.5 904.75,-371 936,-307.85 953.14,-273.2 987.59,-244.04 1011.92,-226.54"/>
<polygon fill="#757575" stroke="#757575" points="1014.18,-229.22 1020.37,-220.63 1010.17,-223.49 1014.18,-229.22"/>
</g>
<!-- utils/object.ts -->
<g id="node7" class="node">
<title>utils/object.ts</title>
<path fill="none" stroke="#cfffac" d="M1079.83,-689.35C1079.83,-689.35 1000.17,-689.35 1000.17,-689.35 996.33,-689.35 992.5,-685.51 992.5,-681.68 992.5,-681.68 992.5,-674.01 992.5,-674.01 992.5,-670.18 996.33,-666.35 1000.17,-666.35 1000.17,-666.35 1079.83,-666.35 1079.83,-666.35 1083.67,-666.35 1087.5,-670.18 1087.5,-674.01 1087.5,-674.01 1087.5,-681.68 1087.5,-681.68 1087.5,-685.51 1083.67,-689.35 1079.83,-689.35"/>
<text text-anchor="middle" x="1040" y="-674.15" font-family="Arial" font-size="14.00" fill="#cfffac">utils/object.ts</text>
</g>
<!-- cart/Cart.ts&#45;&gt;utils/object.ts -->
<g id="edge4" class="edge">
<title>cart/Cart.ts&#45;&gt;utils/object.ts</title>
<path fill="none" stroke="#757575" d="M828.19,-648.51C870.02,-654.33 935.5,-663.44 982.38,-669.97"/>
<polygon fill="#757575" stroke="#757575" points="982,-673.45 992.39,-671.36 982.96,-666.52 982,-673.45"/>
</g>
<!-- cart/data/cart.ts&#45;&gt;shop/data/products.ts -->
<g id="edge8" class="edge">
<title>cart/data/cart.ts&#45;&gt;shop/data/products.ts</title>
<path fill="none" stroke="#757575" d="M1095.02,-627.95C1111.3,-624.03 1128.86,-618.51 1144,-610.85 1190.17,-587.46 1234.61,-545.45 1258.31,-520.98"/>
<polygon fill="#757575" stroke="#757575" points="1260.88,-523.35 1265.25,-513.69 1255.82,-518.52 1260.88,-523.35"/>
</g>
<!-- cart/CartController.ts -->
<g id="node8" class="node">
<title>cart/CartController.ts</title>
<path fill="none" stroke="#c6c5fe" d="M603.83,-610.35C603.83,-610.35 479.17,-610.35 479.17,-610.35 475.33,-610.35 471.5,-606.51 471.5,-602.68 471.5,-602.68 471.5,-595.01 471.5,-595.01 471.5,-591.18 475.33,-587.35 479.17,-587.35 479.17,-587.35 603.83,-587.35 603.83,-587.35 607.67,-587.35 611.5,-591.18 611.5,-595.01 611.5,-595.01 611.5,-602.68 611.5,-602.68 611.5,-606.51 607.67,-610.35 603.83,-610.35"/>
<text text-anchor="middle" x="541.5" y="-595.15" font-family="Arial" font-size="14.00" fill="#c6c5fe">cart/CartController.ts</text>
</g>
<!-- cart/CartController.ts&#45;&gt;cart/Cart.ts -->
<g id="edge5" class="edge">
<title>cart/CartController.ts&#45;&gt;cart/Cart.ts</title>
<path fill="none" stroke="#757575" d="M604.88,-610.4C626.45,-614.37 650.78,-618.83 673,-622.85 693.28,-626.52 715.63,-630.5 735.03,-633.94"/>
<polygon fill="#757575" stroke="#757575" points="734.42,-637.39 744.87,-635.69 735.64,-630.49 734.42,-637.39"/>
</g>
<!-- cart/views/CartRenderer.ts -->
<g id="node9" class="node">
<title>cart/views/CartRenderer.ts</title>
<path fill="none" stroke="#c6c5fe" d="M866.83,-613.35C866.83,-613.35 706.17,-613.35 706.17,-613.35 702.33,-613.35 698.5,-609.51 698.5,-605.68 698.5,-605.68 698.5,-598.01 698.5,-598.01 698.5,-594.18 702.33,-590.35 706.17,-590.35 706.17,-590.35 866.83,-590.35 866.83,-590.35 870.67,-590.35 874.5,-594.18 874.5,-598.01 874.5,-598.01 874.5,-605.68 874.5,-605.68 874.5,-609.51 870.67,-613.35 866.83,-613.35"/>
<text text-anchor="middle" x="786.5" y="-598.15" font-family="Arial" font-size="14.00" fill="#c6c5fe">cart/views/CartRenderer.ts</text>
</g>
<!-- cart/CartController.ts&#45;&gt;cart/views/CartRenderer.ts -->
<g id="edge6" class="edge">
<title>cart/CartController.ts&#45;&gt;cart/views/CartRenderer.ts</title>
<path fill="none" stroke="#757575" d="M611.81,-599.7C635.59,-600 662.66,-600.33 688.23,-600.65"/>
<polygon fill="#757575" stroke="#757575" points="688.29,-604.15 698.33,-600.77 688.37,-597.15 688.29,-604.15"/>
</g>
<!-- cart/views/CartTotalRenderer.ts -->
<g id="node10" class="node">
<title>cart/views/CartTotalRenderer.ts</title>
<path fill="none" stroke="#c6c5fe" d="M880.83,-572.35C880.83,-572.35 692.17,-572.35 692.17,-572.35 688.33,-572.35 684.5,-568.51 684.5,-564.68 684.5,-564.68 684.5,-557.01 684.5,-557.01 684.5,-553.18 688.33,-549.35 692.17,-549.35 692.17,-549.35 880.83,-549.35 880.83,-549.35 884.67,-549.35 888.5,-553.18 888.5,-557.01 888.5,-557.01 888.5,-564.68 888.5,-564.68 888.5,-568.51 884.67,-572.35 880.83,-572.35"/>
<text text-anchor="middle" x="786.5" y="-557.15" font-family="Arial" font-size="14.00" fill="#c6c5fe">cart/views/CartTotalRenderer.ts</text>
</g>
<!-- cart/CartController.ts&#45;&gt;cart/views/CartTotalRenderer.ts -->
<g id="edge7" class="edge">
<title>cart/CartController.ts&#45;&gt;cart/views/CartTotalRenderer.ts</title>
<path fill="none" stroke="#757575" d="M611.81,-588.01C639.79,-583.63 672.34,-578.54 701.64,-573.96"/>
<polygon fill="#757575" stroke="#757575" points="702.52,-577.37 711.86,-572.36 701.44,-570.45 702.52,-577.37"/>
</g>
<!-- cart/views/CartRenderer.ts&#45;&gt;abstracts/AbstractRenderer.ts -->
<g id="edge14" class="edge">
<title>cart/views/CartRenderer.ts&#45;&gt;abstracts/AbstractRenderer.ts</title>
<path fill="none" stroke="#757575" d="M874.57,-593.53C883.55,-590.6 892.21,-586.79 900,-581.85 923.42,-566.97 915.61,-549.66 936,-530.85 1014.94,-458.03 1051.7,-462.76 1144,-407.85 1179.93,-386.47 1221.28,-361.7 1247.98,-345.68"/>
<polygon fill="#757575" stroke="#757575" points="1250.01,-348.54 1256.78,-340.39 1246.41,-342.54 1250.01,-348.54"/>
</g>
<!-- cart/views/CartRenderer.ts&#45;&gt;cart/data/cart.ts -->
<g id="edge15" class="edge">
<title>cart/views/CartRenderer.ts&#45;&gt;cart/data/cart.ts</title>
<path fill="none" stroke="#757575" d="M870.2,-613.36C904.18,-618.08 942.92,-623.48 974.71,-627.9"/>
<polygon fill="#757575" stroke="#757575" points="974.39,-631.39 984.78,-629.3 975.36,-624.46 974.39,-631.39"/>
</g>
<!-- cart/views/CartRenderer.ts&#45;&gt;shop/data/products.ts -->
<g id="edge16" class="edge">
<title>cart/views/CartRenderer.ts&#45;&gt;shop/data/products.ts</title>
<path fill="none" stroke="#757575" d="M853.26,-590.32C868.61,-587.58 884.88,-584.65 900,-581.85 1008.59,-561.74 1036.17,-558.69 1144,-534.85 1169.93,-529.11 1198.55,-522.05 1222.49,-515.93"/>
<polygon fill="#757575" stroke="#757575" points="1223.63,-519.25 1232.44,-513.37 1221.89,-512.47 1223.63,-519.25"/>
</g>
<!-- cart/views/CartTotalRenderer.ts&#45;&gt;abstracts/AbstractRenderer.ts -->
<g id="edge17" class="edge">
<title>cart/views/CartTotalRenderer.ts&#45;&gt;abstracts/AbstractRenderer.ts</title>
<path fill="none" stroke="#757575" d="M800.03,-549.33C832.97,-519.13 920.48,-439.43 936,-430.85 1019.57,-384.62 1126.54,-356.99 1197.97,-342.37"/>
<polygon fill="#757575" stroke="#757575" points="1198.69,-345.8 1207.81,-340.39 1197.31,-338.93 1198.69,-345.8"/>
</g>
<!-- cart/index.ts -->
<g id="node11" class="node">
<title>cart/index.ts</title>
<path fill="none" stroke="#c6c5fe" d="M356.33,-630.35C356.33,-630.35 282.67,-630.35 282.67,-630.35 278.83,-630.35 275,-626.51 275,-622.68 275,-622.68 275,-615.01 275,-615.01 275,-611.18 278.83,-607.35 282.67,-607.35 282.67,-607.35 356.33,-607.35 356.33,-607.35 360.17,-607.35 364,-611.18 364,-615.01 364,-615.01 364,-622.68 364,-622.68 364,-626.51 360.17,-630.35 356.33,-630.35"/>
<text text-anchor="middle" x="319.5" y="-615.15" font-family="Arial" font-size="14.00" fill="#c6c5fe">cart/index.ts</text>
</g>
<!-- cart/index.ts&#45;&gt;cart/Cart.ts -->
<g id="edge9" class="edge">
<title>cart/index.ts&#45;&gt;cart/Cart.ts</title>
<path fill="none" stroke="#757575" d="M364.24,-625.55C388.3,-628.95 418.73,-632.79 446,-634.85 548.26,-642.55 668.3,-643.48 734.74,-643.28"/>
<polygon fill="#757575" stroke="#757575" points="734.95,-646.78 744.93,-643.24 734.92,-639.78 734.95,-646.78"/>
</g>
<!-- cart/index.ts&#45;&gt;cart/data/cart.ts -->
<g id="edge11" class="edge">
<title>cart/index.ts&#45;&gt;cart/data/cart.ts</title>
<path fill="none" stroke="#757575" d="M356.33,-630.36C381.21,-637.83 415.28,-647.05 446,-651.85 645.43,-683 699.08,-683.18 900,-663.85 907.79,-663.1 942.22,-656.41 974.86,-649.89"/>
<polygon fill="#757575" stroke="#757575" points="975.78,-653.27 984.9,-647.87 974.4,-646.41 975.78,-653.27"/>
</g>
<!-- cart/index.ts&#45;&gt;cart/CartController.ts -->
<g id="edge10" class="edge">
<title>cart/index.ts&#45;&gt;cart/CartController.ts</title>
<path fill="none" stroke="#757575" d="M364.23,-614.87C391.94,-612.35 428.59,-609.02 461.29,-606.05"/>
<polygon fill="#757575" stroke="#757575" points="461.66,-609.53 471.3,-605.14 461.03,-602.56 461.66,-609.53"/>
</g>
<!-- cart/index.ts&#45;&gt;cart/views/CartRenderer.ts -->
<g id="edge12" class="edge">
<title>cart/index.ts&#45;&gt;cart/views/CartRenderer.ts</title>
<path fill="none" stroke="#757575" d="M364.06,-619.28C388.2,-619.5 418.76,-619.74 446,-619.85 530.89,-620.19 552.27,-624.96 637,-619.85 655.79,-618.71 675.84,-616.78 694.93,-614.59"/>
<polygon fill="#757575" stroke="#757575" points="695.6,-618.03 705.12,-613.38 694.78,-611.08 695.6,-618.03"/>
</g>
<!-- cart/index.ts&#45;&gt;cart/views/CartTotalRenderer.ts -->
<g id="edge13" class="edge">
<title>cart/index.ts&#45;&gt;cart/views/CartTotalRenderer.ts</title>
<path fill="none" stroke="#757575" d="M349.38,-607.31C374.47,-597.86 412.03,-585.06 446,-578.85 521.38,-565.07 607.63,-560.64 674.33,-559.62"/>
<polygon fill="#757575" stroke="#757575" points="674.49,-563.11 684.44,-559.48 674.4,-556.11 674.49,-563.11"/>
</g>
<!-- main.ts -->
<g id="node12" class="node">
<title>main.ts</title>
<path fill="none" stroke="#c6c5fe" d="M53.33,-407.35C53.33,-407.35 7.67,-407.35 7.67,-407.35 3.83,-407.35 0,-403.51 0,-399.68 0,-399.68 0,-392.01 0,-392.01 0,-388.18 3.83,-384.35 7.67,-384.35 7.67,-384.35 53.33,-384.35 53.33,-384.35 57.17,-384.35 61,-388.18 61,-392.01 61,-392.01 61,-399.68 61,-399.68 61,-403.51 57.17,-407.35 53.33,-407.35"/>
<text text-anchor="middle" x="30.5" y="-392.15" font-family="Arial" font-size="14.00" fill="#c6c5fe">main.ts</text>
</g>
<!-- main.ts&#45;&gt;cart.scss -->
<g id="edge18" class="edge">
<title>main.ts&#45;&gt;cart.scss</title>
<path fill="none" stroke="#757575" d="M44.48,-407.77C57.31,-419.25 77.75,-436.75 97,-449.85 101.72,-453.06 106.88,-456.22 111.98,-459.18"/>
<polygon fill="#757575" stroke="#757575" points="110.59,-462.41 121.02,-464.24 114.01,-456.3 110.59,-462.41"/>
</g>
<!-- main.ts&#45;&gt;cart/index.ts -->
<g id="edge19" class="edge">
<title>main.ts&#45;&gt;cart/index.ts</title>
<path fill="none" stroke="#757575" d="M61.32,-405.55C105.19,-420.02 183.01,-446.55 193,-455.85 221.25,-482.13 206.51,-503.5 229,-534.85 247.7,-560.91 275.34,-585.36 294.95,-601.08"/>
<polygon fill="#757575" stroke="#757575" points="292.79,-603.84 302.82,-607.27 297.12,-598.34 292.79,-603.84"/>
</g>
<!-- router/index.ts -->
<g id="node13" class="node">
<title>router/index.ts</title>
<path fill="none" stroke="#c6c5fe" d="M362.83,-119.35C362.83,-119.35 276.17,-119.35 276.17,-119.35 272.33,-119.35 268.5,-115.51 268.5,-111.68 268.5,-111.68 268.5,-104.01 268.5,-104.01 268.5,-100.18 272.33,-96.35 276.17,-96.35 276.17,-96.35 362.83,-96.35 362.83,-96.35 366.67,-96.35 370.5,-100.18 370.5,-104.01 370.5,-104.01 370.5,-111.68 370.5,-111.68 370.5,-115.51 366.67,-119.35 362.83,-119.35"/>
<text text-anchor="middle" x="319.5" y="-104.15" font-family="Arial" font-size="14.00" fill="#c6c5fe">router/index.ts</text>
</g>
<!-- main.ts&#45;&gt;router/index.ts -->
<g id="edge20" class="edge">
<title>main.ts&#45;&gt;router/index.ts</title>
<path fill="none" stroke="#757575" d="M61.21,-386.51C105.34,-372.39 184,-346.16 193,-335.85 241.21,-280.6 189.18,-236.42 229,-174.85 242.92,-153.32 266.3,-136.17 285.68,-124.61"/>
<polygon fill="#757575" stroke="#757575" points="287.59,-127.55 294.53,-119.55 284.11,-121.48 287.59,-127.55"/>
</g>
<!-- shop/index.ts -->
<g id="node14" class="node">
<title>shop/index.ts</title>
<path fill="none" stroke="#c6c5fe" d="M185.33,-407.35C185.33,-407.35 104.67,-407.35 104.67,-407.35 100.83,-407.35 97,-403.51 97,-399.68 97,-399.68 97,-392.01 97,-392.01 97,-388.18 100.83,-384.35 104.67,-384.35 104.67,-384.35 185.33,-384.35 185.33,-384.35 189.17,-384.35 193,-388.18 193,-392.01 193,-392.01 193,-399.68 193,-399.68 193,-403.51 189.17,-407.35 185.33,-407.35"/>
<text text-anchor="middle" x="145" y="-392.15" font-family="Arial" font-size="14.00" fill="#c6c5fe">shop/index.ts</text>
</g>
<!-- main.ts&#45;&gt;shop/index.ts -->
<g id="edge21" class="edge">
<title>main.ts&#45;&gt;shop/index.ts</title>
<path fill="none" stroke="#757575" d="M61.06,-395.85C69,-395.85 77.88,-395.85 86.78,-395.85"/>
<polygon fill="#757575" stroke="#757575" points="86.8,-399.35 96.8,-395.85 86.8,-392.35 86.8,-399.35"/>
</g>
<!-- style.css -->
<g id="node15" class="node">
<title>style.css</title>
<path fill="none" stroke="#cfffac" d="M171.33,-327.35C171.33,-327.35 118.67,-327.35 118.67,-327.35 114.83,-327.35 111,-323.51 111,-319.68 111,-319.68 111,-312.01 111,-312.01 111,-308.18 114.83,-304.35 118.67,-304.35 118.67,-304.35 171.33,-304.35 171.33,-304.35 175.17,-304.35 179,-308.18 179,-312.01 179,-312.01 179,-319.68 179,-319.68 179,-323.51 175.17,-327.35 171.33,-327.35"/>
<text text-anchor="middle" x="145" y="-312.15" font-family="Arial" font-size="14.00" fill="#cfffac">style.css</text>
</g>
<!-- main.ts&#45;&gt;style.css -->
<g id="edge22" class="edge">
<title>main.ts&#45;&gt;style.css</title>
<path fill="none" stroke="#757575" d="M44.48,-383.92C57.31,-372.45 77.75,-354.95 97,-341.85 101.72,-338.64 106.88,-335.47 111.98,-332.52"/>
<polygon fill="#757575" stroke="#757575" points="114.01,-335.4 121.02,-327.46 110.59,-329.29 114.01,-335.4"/>
</g>
<!-- router/NavigationController.ts -->
<g id="node16" class="node">
<title>router/NavigationController.ts</title>
<path fill="none" stroke="#c6c5fe" d="M629.33,-99.35C629.33,-99.35 453.67,-99.35 453.67,-99.35 449.83,-99.35 446,-95.51 446,-91.68 446,-91.68 446,-84.01 446,-84.01 446,-80.18 449.83,-76.35 453.67,-76.35 453.67,-76.35 629.33,-76.35 629.33,-76.35 633.17,-76.35 637,-80.18 637,-84.01 637,-84.01 637,-91.68 637,-91.68 637,-95.51 633.17,-99.35 629.33,-99.35"/>
<text text-anchor="middle" x="541.5" y="-84.15" font-family="Arial" font-size="14.00" fill="#c6c5fe">router/NavigationController.ts</text>
</g>
<!-- router/index.ts&#45;&gt;router/NavigationController.ts -->
<g id="edge29" class="edge">
<title>router/index.ts&#45;&gt;router/NavigationController.ts</title>
<path fill="none" stroke="#757575" d="M370.7,-103.28C390.14,-101.52 413.16,-99.42 435.88,-97.36"/>
<polygon fill="#757575" stroke="#757575" points="436.29,-100.84 445.93,-96.44 435.66,-93.86 436.29,-100.84"/>
</g>
<!-- router/Router.ts -->
<g id="node17" class="node">
<title>router/Router.ts</title>
<path fill="none" stroke="#c6c5fe" d="M833.83,-139.35C833.83,-139.35 739.17,-139.35 739.17,-139.35 735.33,-139.35 731.5,-135.51 731.5,-131.68 731.5,-131.68 731.5,-124.01 731.5,-124.01 731.5,-120.18 735.33,-116.35 739.17,-116.35 739.17,-116.35 833.83,-116.35 833.83,-116.35 837.67,-116.35 841.5,-120.18 841.5,-124.01 841.5,-124.01 841.5,-131.68 841.5,-131.68 841.5,-135.51 837.67,-139.35 833.83,-139.35"/>
<text text-anchor="middle" x="786.5" y="-124.15" font-family="Arial" font-size="14.00" fill="#c6c5fe">router/Router.ts</text>
</g>
<!-- router/index.ts&#45;&gt;router/Router.ts -->
<g id="edge30" class="edge">
<title>router/index.ts&#45;&gt;router/Router.ts</title>
<path fill="none" stroke="#757575" d="M370.7,-110.01C455.59,-113.66 627.35,-121.05 721.02,-125.07"/>
<polygon fill="#757575" stroke="#757575" points="721.07,-128.58 731.21,-125.51 721.37,-121.59 721.07,-128.58"/>
</g>
<!-- router/data/routes.ts -->
<g id="node18" class="node">
<title>router/data/routes.ts</title>
<path fill="none" stroke="#cfffac" d="M1100.83,-39.35C1100.83,-39.35 979.17,-39.35 979.17,-39.35 975.33,-39.35 971.5,-35.51 971.5,-31.68 971.5,-31.68 971.5,-24.01 971.5,-24.01 971.5,-20.18 975.33,-16.35 979.17,-16.35 979.17,-16.35 1100.83,-16.35 1100.83,-16.35 1104.67,-16.35 1108.5,-20.18 1108.5,-24.01 1108.5,-24.01 1108.5,-31.68 1108.5,-31.68 1108.5,-35.51 1104.67,-39.35 1100.83,-39.35"/>
<text text-anchor="middle" x="1040" y="-24.15" font-family="Arial" font-size="14.00" fill="#cfffac">router/data/routes.ts</text>
</g>
<!-- router/index.ts&#45;&gt;router/data/routes.ts -->
<g id="edge31" class="edge">
<title>router/index.ts&#45;&gt;router/data/routes.ts</title>
<path fill="none" stroke="#757575" d="M353.88,-96.32C379.07,-87.78 414.54,-76.06 446,-66.85 546.04,-37.54 569.6,-21.07 673,-7.85 773.07,4.95 799.37,-0.65 900,-7.85 920.39,-9.31 942.33,-11.96 962.62,-14.86"/>
<polygon fill="#757575" stroke="#757575" points="962.35,-18.35 972.75,-16.35 963.36,-11.43 962.35,-18.35"/>
</g>
<!-- shop/index.ts&#45;&gt;shop/data/products.ts -->
<g id="edge48" class="edge">
<title>shop/index.ts&#45;&gt;shop/data/products.ts</title>
<path fill="none" stroke="#757575" d="M177.82,-407.44C182.94,-409.47 188.15,-411.65 193,-413.85 209.48,-421.32 212.2,-426.13 229,-432.85 362.58,-486.27 396.64,-520.85 540.5,-520.85 540.5,-520.85 540.5,-520.85 787.5,-520.85 930.34,-520.85 1096.49,-512.64 1193.57,-507.01"/>
<polygon fill="#757575" stroke="#757575" points="1193.84,-510.5 1203.61,-506.42 1193.43,-503.51 1193.84,-510.5"/>
</g>
<!-- shop/InsertCart.ts -->
<g id="node21" class="node">
<title>shop/InsertCart.ts</title>
<path fill="none" stroke="#c6c5fe" d="M595.33,-340.35C595.33,-340.35 487.67,-340.35 487.67,-340.35 483.83,-340.35 480,-336.51 480,-332.68 480,-332.68 480,-325.01 480,-325.01 480,-321.18 483.83,-317.35 487.67,-317.35 487.67,-317.35 595.33,-317.35 595.33,-317.35 599.17,-317.35 603,-321.18 603,-325.01 603,-325.01 603,-332.68 603,-332.68 603,-336.51 599.17,-340.35 595.33,-340.35"/>
<text text-anchor="middle" x="541.5" y="-325.15" font-family="Arial" font-size="14.00" fill="#c6c5fe">shop/InsertCart.ts</text>
</g>
<!-- shop/index.ts&#45;&gt;shop/InsertCart.ts -->
<g id="edge46" class="edge">
<title>shop/index.ts&#45;&gt;shop/InsertCart.ts</title>
<path fill="none" stroke="#757575" d="M188.04,-384.33C201.1,-380.99 215.59,-377.53 229,-374.85 311.01,-358.46 406.24,-345.23 469.61,-337.24"/>
<polygon fill="#757575" stroke="#757575" points="470.4,-340.67 479.89,-335.95 469.53,-333.72 470.4,-340.67"/>
</g>
<!-- shop/views/MiniCartRenderer.ts -->
<g id="node24" class="node">
<title>shop/views/MiniCartRenderer.ts</title>
<path fill="none" stroke="#c6c5fe" d="M1136.33,-340.35C1136.33,-340.35 943.67,-340.35 943.67,-340.35 939.83,-340.35 936,-336.51 936,-332.68 936,-332.68 936,-325.01 936,-325.01 936,-321.18 939.83,-317.35 943.67,-317.35 943.67,-317.35 1136.33,-317.35 1136.33,-317.35 1140.17,-317.35 1144,-321.18 1144,-325.01 1144,-325.01 1144,-332.68 1144,-332.68 1144,-336.51 1140.17,-340.35 1136.33,-340.35"/>
<text text-anchor="middle" x="1040" y="-325.15" font-family="Arial" font-size="14.00" fill="#c6c5fe">shop/views/MiniCartRenderer.ts</text>
</g>
<!-- shop/index.ts&#45;&gt;shop/views/MiniCartRenderer.ts -->
<g id="edge49" class="edge">
<title>shop/index.ts&#45;&gt;shop/views/MiniCartRenderer.ts</title>
<path fill="none" stroke="#757575" d="M185.76,-407.45C199.35,-410.87 214.72,-414.15 229,-415.85 308.88,-425.34 329.63,-419.29 410,-415.85 628.38,-406.51 692.32,-441.99 900,-373.85 917.82,-368 918.62,-358.87 936,-351.85 944.42,-348.44 953.44,-345.5 962.52,-342.96"/>
<polygon fill="#757575" stroke="#757575" points="963.58,-346.29 972.36,-340.36 961.79,-339.53 963.58,-346.29"/>
</g>
<!-- shop/InsertCartController.ts -->
<g id="node25" class="node">
<title>shop/InsertCartController.ts</title>
<path fill="none" stroke="#c6c5fe" d="M402.33,-407.35C402.33,-407.35 236.67,-407.35 236.67,-407.35 232.83,-407.35 229,-403.51 229,-399.68 229,-399.68 229,-392.01 229,-392.01 229,-388.18 232.83,-384.35 236.67,-384.35 236.67,-384.35 402.33,-384.35 402.33,-384.35 406.17,-384.35 410,-388.18 410,-392.01 410,-392.01 410,-399.68 410,-399.68 410,-403.51 406.17,-407.35 402.33,-407.35"/>
<text text-anchor="middle" x="319.5" y="-392.15" font-family="Arial" font-size="14.00" fill="#c6c5fe">shop/InsertCartController.ts</text>
</g>
<!-- shop/index.ts&#45;&gt;shop/InsertCartController.ts -->
<g id="edge47" class="edge">
<title>shop/index.ts&#45;&gt;shop/InsertCartController.ts</title>
<path fill="none" stroke="#757575" d="M193.14,-395.85C201.25,-395.85 209.96,-395.85 218.86,-395.85"/>
<polygon fill="#757575" stroke="#757575" points="218.97,-399.35 228.97,-395.85 218.97,-392.35 218.97,-399.35"/>
</g>
<!-- shop/views/ProductsRenderer.ts -->
<g id="node26" class="node">
<title>shop/views/ProductsRenderer.ts</title>
<path fill="none" stroke="#c6c5fe" d="M883.83,-180.35C883.83,-180.35 689.17,-180.35 689.17,-180.35 685.33,-180.35 681.5,-176.51 681.5,-172.68 681.5,-172.68 681.5,-165.01 681.5,-165.01 681.5,-161.18 685.33,-157.35 689.17,-157.35 689.17,-157.35 883.83,-157.35 883.83,-157.35 887.67,-157.35 891.5,-161.18 891.5,-165.01 891.5,-165.01 891.5,-172.68 891.5,-172.68 891.5,-176.51 887.67,-180.35 883.83,-180.35"/>
<text text-anchor="middle" x="786.5" y="-165.15" font-family="Arial" font-size="14.00" fill="#c6c5fe">shop/views/ProductsRenderer.ts</text>
</g>
<!-- shop/index.ts&#45;&gt;shop/views/ProductsRenderer.ts -->
<g id="edge50" class="edge">
<title>shop/index.ts&#45;&gt;shop/views/ProductsRenderer.ts</title>
<path fill="none" stroke="#757575" d="M168.89,-384.11C176.7,-379.87 185.37,-374.88 193,-369.85 209.92,-358.69 212.45,-353.55 229,-341.85 322.52,-275.73 337.82,-240.48 446,-202.85 518.24,-177.72 603.98,-169.29 671.22,-167.11"/>
<polygon fill="#757575" stroke="#757575" points="671.52,-170.6 681.42,-166.82 671.33,-163.6 671.52,-170.6"/>
</g>
<!-- router/NavigationController.ts&#45;&gt;utils/Subscribe.ts -->
<g id="edge26" class="edge">
<title>router/NavigationController.ts&#45;&gt;utils/Subscribe.ts</title>
<path fill="none" stroke="#757575" d="M619.18,-76.33C694.26,-68.56 810.15,-66.07 900,-106.85 920.89,-116.33 918.17,-129.4 936,-143.85 958.9,-162.4 987.39,-180.02 1008.6,-192.22"/>
<polygon fill="#757575" stroke="#757575" points="1007.07,-195.38 1017.5,-197.27 1010.53,-189.29 1007.07,-195.38"/>
</g>
<!-- router/NavigationController.ts&#45;&gt;router/Router.ts -->
<g id="edge23" class="edge">
<title>router/NavigationController.ts&#45;&gt;router/Router.ts</title>
<path fill="none" stroke="#757575" d="M612.46,-99.36C646.77,-105.01 687.8,-111.77 721.3,-117.28"/>
<polygon fill="#757575" stroke="#757575" points="721.01,-120.78 731.44,-118.95 722.14,-113.87 721.01,-120.78"/>
</g>
<!-- router/NavigationController.ts&#45;&gt;router/data/routes.ts -->
<g id="edge24" class="edge">
<title>router/NavigationController.ts&#45;&gt;router/data/routes.ts</title>
<path fill="none" stroke="#757575" d="M560.59,-76.24C584.98,-61.36 630.28,-36.34 673,-26.85 770.45,-5.2 886.14,-10.5 960.98,-17.82"/>
<polygon fill="#757575" stroke="#757575" points="960.96,-21.34 971.26,-18.87 961.67,-14.37 960.96,-21.34"/>
</g>
<!-- router/views/NavigationRenderer.ts -->
<g id="node19" class="node">
<title>router/views/NavigationRenderer.ts</title>
<path fill="none" stroke="#c6c5fe" d="M892.33,-59.35C892.33,-59.35 680.67,-59.35 680.67,-59.35 676.83,-59.35 673,-55.51 673,-51.68 673,-51.68 673,-44.01 673,-44.01 673,-40.18 676.83,-36.35 680.67,-36.35 680.67,-36.35 892.33,-36.35 892.33,-36.35 896.17,-36.35 900,-40.18 900,-44.01 900,-44.01 900,-51.68 900,-51.68 900,-55.51 896.17,-59.35 892.33,-59.35"/>
<text text-anchor="middle" x="786.5" y="-44.15" font-family="Arial" font-size="14.00" fill="#c6c5fe">router/views/NavigationRenderer.ts</text>
</g>
<!-- router/NavigationController.ts&#45;&gt;router/views/NavigationRenderer.ts -->
<g id="edge25" class="edge">
<title>router/NavigationController.ts&#45;&gt;router/views/NavigationRenderer.ts</title>
<path fill="none" stroke="#757575" d="M612.46,-76.33C641.56,-71.54 675.5,-65.95 705.57,-61"/>
<polygon fill="#757575" stroke="#757575" points="706.31,-64.43 715.61,-59.35 705.18,-57.52 706.31,-64.43"/>
</g>
<!-- router/Router.ts&#45;&gt;utils/Subscribe.ts -->
<g id="edge28" class="edge">
<title>router/Router.ts&#45;&gt;utils/Subscribe.ts</title>
<path fill="none" stroke="#757575" d="M841.62,-134.8C860.34,-137.9 881.3,-142.17 900,-147.85 938.35,-159.49 980.18,-178.82 1007.83,-192.61"/>
<polygon fill="#757575" stroke="#757575" points="1006.49,-195.85 1016.99,-197.23 1009.64,-189.6 1006.49,-195.85"/>
</g>
<!-- router/Router.ts&#45;&gt;router/data/routes.ts -->
<g id="edge27" class="edge">
<title>router/Router.ts&#45;&gt;router/data/routes.ts</title>
<path fill="none" stroke="#757575" d="M816.84,-116.18C862.28,-98.12 949.67,-63.37 1000.24,-43.26"/>
<polygon fill="#757575" stroke="#757575" points="1001.85,-46.39 1009.84,-39.44 999.26,-39.88 1001.85,-46.39"/>
</g>
<!-- router/views/NavigationRenderer.ts&#45;&gt;abstracts/AbstractRenderer.ts -->
<g id="edge32" class="edge">
<title>router/views/NavigationRenderer.ts&#45;&gt;abstracts/AbstractRenderer.ts</title>
<path fill="none" stroke="#757575" d="M900.28,-54.73C989.45,-62.08 1105.17,-76.42 1144,-102.85 1218.59,-153.62 1256.89,-261.61 1270.31,-307.5"/>
<polygon fill="#757575" stroke="#757575" points="1266.99,-308.6 1273.07,-317.28 1273.73,-306.7 1266.99,-308.6"/>
</g>
<!-- router/views/NavigationRenderer.ts&#45;&gt;router/data/routes.ts -->
<g id="edge33" class="edge">
<title>router/views/NavigationRenderer.ts&#45;&gt;router/data/routes.ts</title>
<path fill="none" stroke="#757575" d="M900.01,-38.9C920.72,-37.25 941.92,-35.57 961.33,-34.02"/>
<polygon fill="#757575" stroke="#757575" points="961.61,-37.51 971.3,-33.23 961.05,-30.54 961.61,-37.51"/>
</g>
<!-- utils/OnEmit.ts -->
<g id="node20" class="node">
<title>utils/OnEmit.ts</title>
<path fill="none" stroke="#cfffac" d="M1084.83,-135.35C1084.83,-135.35 995.17,-135.35 995.17,-135.35 991.33,-135.35 987.5,-131.51 987.5,-127.68 987.5,-127.68 987.5,-120.01 987.5,-120.01 987.5,-116.18 991.33,-112.35 995.17,-112.35 995.17,-112.35 1084.83,-112.35 1084.83,-112.35 1088.67,-112.35 1092.5,-116.18 1092.5,-120.01 1092.5,-120.01 1092.5,-127.68 1092.5,-127.68 1092.5,-131.51 1088.67,-135.35 1084.83,-135.35"/>
<text text-anchor="middle" x="1040" y="-120.15" font-family="Arial" font-size="14.00" fill="#cfffac">utils/OnEmit.ts</text>
</g>
<!-- router/views/NavigationRenderer.ts&#45;&gt;utils/OnEmit.ts -->
<g id="edge34" class="edge">
<title>router/views/NavigationRenderer.ts&#45;&gt;utils/OnEmit.ts</title>
<path fill="none" stroke="#757575" d="M844.58,-59.37C862.47,-63.42 882.18,-68.36 900,-73.85 916.41,-78.9 919.89,-81.9 936,-87.85 955.43,-95.02 977.06,-102.63 995.45,-109"/>
<polygon fill="#757575" stroke="#757575" points="994.43,-112.35 1005.03,-112.31 996.72,-105.74 994.43,-112.35"/>
</g>
<!-- shop/InsertCart.ts&#45;&gt;shop/data/products.ts -->
<g id="edge37" class="edge">
<title>shop/InsertCart.ts&#45;&gt;shop/data/products.ts</title>
<path fill="none" stroke="#757575" d="M593.26,-340.37C696.9,-363.96 940.24,-419.67 1144,-468.85 1169.22,-474.93 1197.09,-481.87 1220.7,-487.81"/>
<polygon fill="#757575" stroke="#757575" points="1219.98,-491.24 1230.53,-490.29 1221.69,-484.45 1219.98,-491.24"/>
</g>
<!-- shop/InsertCart.ts&#45;&gt;utils/Subscribe.ts -->
<g id="edge39" class="edge">
<title>shop/InsertCart.ts&#45;&gt;utils/Subscribe.ts</title>
<path fill="none" stroke="#757575" d="M560.46,-317.21C579.89,-304.38 611.49,-282.76 637,-261.85 654.02,-247.89 652.77,-236.51 673,-227.85 769.65,-186.49 894.01,-190.6 970.04,-198.72"/>
<polygon fill="#757575" stroke="#757575" points="970.11,-202.25 980.44,-199.89 970.89,-195.29 970.11,-202.25"/>
</g>
<!-- shop/api/dummyBuyAPI.ts -->
<g id="node22" class="node">
<title>shop/api/dummyBuyAPI.ts</title>
<path fill="none" stroke="#c6c5fe" d="M866.83,-260.35C866.83,-260.35 706.17,-260.35 706.17,-260.35 702.33,-260.35 698.5,-256.51 698.5,-252.68 698.5,-252.68 698.5,-245.01 698.5,-245.01 698.5,-241.18 702.33,-237.35 706.17,-237.35 706.17,-237.35 866.83,-237.35 866.83,-237.35 870.67,-237.35 874.5,-241.18 874.5,-245.01 874.5,-245.01 874.5,-252.68 874.5,-252.68 874.5,-256.51 870.67,-260.35 866.83,-260.35"/>
<text text-anchor="middle" x="786.5" y="-245.15" font-family="Arial" font-size="14.00" fill="#c6c5fe">shop/api/dummyBuyAPI.ts</text>
</g>
<!-- shop/InsertCart.ts&#45;&gt;shop/api/dummyBuyAPI.ts -->
<g id="edge35" class="edge">
<title>shop/InsertCart.ts&#45;&gt;shop/api/dummyBuyAPI.ts</title>
<path fill="none" stroke="#757575" d="M567.06,-317.25C592.96,-305.36 635.17,-286.95 673,-274.85 687.12,-270.33 702.46,-266.25 717.15,-262.74"/>
<polygon fill="#757575" stroke="#757575" points="718.25,-266.08 727.19,-260.4 716.66,-259.26 718.25,-266.08"/>
</g>
<!-- shop/api/dummyProductAPI.ts -->
<g id="node23" class="node">
<title>shop/api/dummyProductAPI.ts</title>
<path fill="none" stroke="#c6c5fe" d="M878.83,-340.35C878.83,-340.35 694.17,-340.35 694.17,-340.35 690.33,-340.35 686.5,-336.51 686.5,-332.68 686.5,-332.68 686.5,-325.01 686.5,-325.01 686.5,-321.18 690.33,-317.35 694.17,-317.35 694.17,-317.35 878.83,-317.35 878.83,-317.35 882.67,-317.35 886.5,-321.18 886.5,-325.01 886.5,-325.01 886.5,-332.68 886.5,-332.68 886.5,-336.51 882.67,-340.35 878.83,-340.35"/>
<text text-anchor="middle" x="786.5" y="-325.15" font-family="Arial" font-size="14.00" fill="#c6c5fe">shop/api/dummyProductAPI.ts</text>
</g>
<!-- shop/InsertCart.ts&#45;&gt;shop/api/dummyProductAPI.ts -->
<g id="edge36" class="edge">
<title>shop/InsertCart.ts&#45;&gt;shop/api/dummyProductAPI.ts</title>
<path fill="none" stroke="#757575" d="M603.19,-328.85C625.31,-328.85 651.05,-328.85 676.09,-328.85"/>
<polygon fill="#757575" stroke="#757575" points="676.39,-332.35 686.39,-328.85 676.39,-325.35 676.39,-332.35"/>
</g>
<!-- shop/InsertCart.ts&#45;&gt;shop/views/MiniCartRenderer.ts -->
<g id="edge38" class="edge">
<title>shop/InsertCart.ts&#45;&gt;shop/views/MiniCartRenderer.ts</title>
<path fill="none" stroke="#757575" d="M601.38,-317.33C623.71,-313.5 649.44,-309.73 673,-307.85 773.57,-299.81 799.39,-300.29 900,-307.85 921.64,-309.47 945.02,-312.5 966.31,-315.77"/>
<polygon fill="#757575" stroke="#757575" points="965.84,-319.23 976.26,-317.33 966.92,-312.32 965.84,-319.23"/>
</g>
<!-- shop/api/dummyBuyAPI.ts&#45;&gt;shop/views/MiniCartRenderer.ts -->
<g id="edge44" class="edge">
<title>shop/api/dummyBuyAPI.ts&#45;&gt;shop/views/MiniCartRenderer.ts</title>
<path fill="none" stroke="#757575" d="M844.58,-260.37C862.46,-264.43 882.18,-269.36 900,-274.85 935.85,-285.89 975.66,-301.74 1003.45,-313.41"/>
<polygon fill="#757575" stroke="#757575" points="1002.18,-316.67 1012.75,-317.35 1004.91,-310.22 1002.18,-316.67"/>
</g>
<!-- shop/api/dummyProductAPI.ts&#45;&gt;shop/views/MiniCartRenderer.ts -->
<g id="edge45" class="edge">
<title>shop/api/dummyProductAPI.ts&#45;&gt;shop/views/MiniCartRenderer.ts</title>
<path fill="none" stroke="#757575" d="M886.54,-328.85C899.34,-328.85 912.52,-328.85 925.53,-328.85"/>
<polygon fill="#757575" stroke="#757575" points="925.92,-332.35 935.92,-328.85 925.92,-325.35 925.92,-332.35"/>
</g>
<!-- shop/views/MiniCartRenderer.ts&#45;&gt;abstracts/AbstractRenderer.ts -->
<g id="edge51" class="edge">
<title>shop/views/MiniCartRenderer.ts&#45;&gt;abstracts/AbstractRenderer.ts</title>
<path fill="none" stroke="#757575" d="M1144.07,-328.85C1152.49,-328.85 1161.01,-328.85 1169.45,-328.85"/>
<polygon fill="#757575" stroke="#757575" points="1169.7,-332.35 1179.7,-328.85 1169.7,-325.35 1169.7,-332.35"/>
</g>
<!-- shop/views/MiniCartRenderer.ts&#45;&gt;shop/data/products.ts -->
<g id="edge52" class="edge">
<title>shop/views/MiniCartRenderer.ts&#45;&gt;shop/data/products.ts</title>
<path fill="none" stroke="#757575" d="M1110.58,-340.41C1122.23,-344 1133.82,-348.7 1144,-354.85 1198.25,-387.6 1242.95,-449.65 1263.63,-481.64"/>
<polygon fill="#757575" stroke="#757575" points="1260.73,-483.61 1269.03,-490.18 1266.64,-479.86 1260.73,-483.61"/>
</g>
<!-- shop/InsertCartController.ts&#45;&gt;shop/data/products.ts -->
<g id="edge41" class="edge">
<title>shop/InsertCartController.ts&#45;&gt;shop/data/products.ts</title>
<path fill="none" stroke="#757575" d="M410.39,-405.82C595.3,-426.33 1015.83,-472.99 1193.9,-492.74"/>
<polygon fill="#757575" stroke="#757575" points="1193.67,-496.24 1203.99,-493.86 1194.44,-489.28 1193.67,-496.24"/>
</g>
<!-- shop/InsertCartController.ts&#45;&gt;shop/InsertCart.ts -->
<g id="edge40" class="edge">
<title>shop/InsertCartController.ts&#45;&gt;shop/InsertCart.ts</title>
<path fill="none" stroke="#757575" d="M358.32,-384.33C395.55,-372.99 452.52,-355.64 492.83,-343.37"/>
<polygon fill="#757575" stroke="#757575" points="493.89,-346.7 502.44,-340.44 491.85,-340 493.89,-346.7"/>
</g>
<!-- shop/InsertCartController.ts&#45;&gt;shop/views/MiniCartRenderer.ts -->
<g id="edge42" class="edge">
<title>shop/InsertCartController.ts&#45;&gt;shop/views/MiniCartRenderer.ts</title>
<path fill="none" stroke="#757575" d="M410.01,-390.32C524.01,-382.87 726.97,-368.29 900,-348.85 917.78,-346.85 936.8,-344.35 954.88,-341.81"/>
<polygon fill="#757575" stroke="#757575" points="955.4,-345.27 964.81,-340.39 954.41,-338.34 955.4,-345.27"/>
</g>
<!-- shop/InsertCartController.ts&#45;&gt;shop/views/ProductsRenderer.ts -->
<g id="edge43" class="edge">
<title>shop/InsertCartController.ts&#45;&gt;shop/views/ProductsRenderer.ts</title>
<path fill="none" stroke="#757575" d="M335.24,-384.28C381.72,-348.47 530.6,-238.94 673,-189.85 680.83,-187.15 689.09,-184.77 697.44,-182.68"/>
<polygon fill="#757575" stroke="#757575" points="698.33,-186.07 707.26,-180.36 696.72,-179.26 698.33,-186.07"/>
</g>
<!-- shop/views/ProductsRenderer.ts&#45;&gt;abstracts/AbstractRenderer.ts -->
<g id="edge53" class="edge">
<title>shop/views/ProductsRenderer.ts&#45;&gt;abstracts/AbstractRenderer.ts</title>
<path fill="none" stroke="#757575" d="M861.32,-157.31C936.22,-149.06 1053.68,-145.79 1144,-187.85 1200.44,-214.13 1244.45,-276.46 1264.37,-308.72"/>
<polygon fill="#757575" stroke="#757575" points="1261.39,-310.57 1269.55,-317.33 1267.39,-306.96 1261.39,-310.57"/>
</g>
<!-- shop/views/ProductsRenderer.ts&#45;&gt;shop/data/products.ts -->
<g id="edge54" class="edge">
<title>shop/views/ProductsRenderer.ts&#45;&gt;shop/data/products.ts</title>
<path fill="none" stroke="#757575" d="M815.62,-180.41C845.43,-192.63 893.93,-212.36 936,-228.85 1028.07,-264.93 1066.38,-246.58 1144,-307.85 1175.95,-333.07 1238.45,-437.13 1264.34,-481.57"/>
<polygon fill="#757575" stroke="#757575" points="1261.38,-483.44 1269.42,-490.34 1267.44,-479.93 1261.38,-483.44"/>
</g>
<!-- shop/views/ProductsRenderer.ts&#45;&gt;utils/OnEmit.ts -->
<g id="edge55" class="edge">
<title>shop/views/ProductsRenderer.ts&#45;&gt;utils/OnEmit.ts</title>
<path fill="none" stroke="#757575" d="M851.94,-157.32C890.55,-150.41 939.37,-141.67 977.45,-134.86"/>
<polygon fill="#757575" stroke="#757575" points="978.16,-138.29 987.39,-133.08 976.93,-131.4 978.16,-138.29"/>
</g>
</g>
</svg>
