<?xml version="1.0" encoding="UTF-8" standalone="no"?>
<!DOCTYPE svg PUBLIC "-//W3C//DTD SVG 1.1//EN"
 "http://www.w3.org/Graphics/SVG/1.1/DTD/svg11.dtd">
<!-- Generated by graphviz version 6.0.1 (20220911.1526)
 -->
<!-- Title: G Pages: 1 -->
<svg width="1417pt" height="749pt"
 viewBox="0.00 0.00 1417.20 748.67" xmlns="http://www.w3.org/2000/svg" xmlns:xlink="http://www.w3.org/1999/xlink">
<g id="graph0" class="graph" transform="scale(1 1) rotate(0) translate(21.6 727.07)">
<title>G</title>
<polygon fill="#111111" stroke="none" points="-21.6,21.6 -21.6,-727.07 1395.6,-727.07 1395.6,21.6 -21.6,21.6"/>
<!-- abstracts/AbstractRenderer.ts -->
<g id="node1" class="node">
<title>abstracts/AbstractRenderer.ts</title>
<path fill="none" stroke="#cfffac" d="M1366.33,-294.71C1366.33,-294.71 1187.67,-294.71 1187.67,-294.71 1183.83,-294.71 1180,-290.87 1180,-287.04 1180,-287.04 1180,-279.37 1180,-279.37 1180,-275.54 1183.83,-271.71 1187.67,-271.71 1187.67,-271.71 1366.33,-271.71 1366.33,-271.71 1370.17,-271.71 1374,-275.54 1374,-279.37 1374,-279.37 1374,-287.04 1374,-287.04 1374,-290.87 1370.17,-294.71 1366.33,-294.71"/>
<text text-anchor="middle" x="1277" y="-279.51" font-family="Arial" font-size="14.00" fill="#cfffac">abstracts/AbstractRenderer.ts</text>
</g>
<!-- cart.scss -->
<g id="node2" class="node">
<title>cart.scss</title>
<path fill="none" stroke="#cfffac" d="M172.33,-502.71C172.33,-502.71 117.67,-502.71 117.67,-502.71 113.83,-502.71 110,-498.87 110,-495.04 110,-495.04 110,-487.37 110,-487.37 110,-483.54 113.83,-479.71 117.67,-479.71 117.67,-479.71 172.33,-479.71 172.33,-479.71 176.17,-479.71 180,-483.54 180,-487.37 180,-487.37 180,-495.04 180,-495.04 180,-498.87 176.17,-502.71 172.33,-502.71"/>
<text text-anchor="middle" x="145" y="-487.51" font-family="Arial" font-size="14.00" fill="#cfffac">cart.scss</text>
</g>
<!-- cart/Cart.ts -->
<g id="node3" class="node">
<title>cart/Cart.ts</title>
<path fill="none" stroke="#c6c5fe" d="M820.33,-156.71C820.33,-156.71 752.67,-156.71 752.67,-156.71 748.83,-156.71 745,-152.87 745,-149.04 745,-149.04 745,-141.37 745,-141.37 745,-137.54 748.83,-133.71 752.67,-133.71 752.67,-133.71 820.33,-133.71 820.33,-133.71 824.17,-133.71 828,-137.54 828,-141.37 828,-141.37 828,-149.04 828,-149.04 828,-152.87 824.17,-156.71 820.33,-156.71"/>
<text text-anchor="middle" x="786.5" y="-141.51" font-family="Arial" font-size="14.00" fill="#c6c5fe">cart/Cart.ts</text>
</g>
<!-- cart/data/cart.ts -->
<g id="node4" class="node">
<title>cart/data/cart.ts</title>
<path fill="none" stroke="#c6c5fe" d="M1087.33,-156.71C1087.33,-156.71 992.67,-156.71 992.67,-156.71 988.83,-156.71 985,-152.87 985,-149.04 985,-149.04 985,-141.37 985,-141.37 985,-137.54 988.83,-133.71 992.67,-133.71 992.67,-133.71 1087.33,-133.71 1087.33,-133.71 1091.17,-133.71 1095,-137.54 1095,-141.37 1095,-141.37 1095,-149.04 1095,-149.04 1095,-152.87 1091.17,-156.71 1087.33,-156.71"/>
<text text-anchor="middle" x="1040" y="-141.51" font-family="Arial" font-size="14.00" fill="#c6c5fe">cart/data/cart.ts</text>
</g>
<!-- cart/Cart.ts&#45;&gt;cart/data/cart.ts -->
<g id="edge1" class="edge">
<title>cart/Cart.ts&#45;&gt;cart/data/cart.ts</title>
<path fill="none" stroke="#757575" d="M828.19,-145.21C867.74,-145.21 928.42,-145.21 974.54,-145.21"/>
<polygon fill="#757575" stroke="#757575" points="974.74,-148.71 984.74,-145.21 974.74,-141.71 974.74,-148.71"/>
</g>
<!-- shop/data/products.ts -->
<g id="node5" class="node">
<title>shop/data/products.ts</title>
<path fill="none" stroke="#cfffac" d="M1342.33,-345.71C1342.33,-345.71 1211.67,-345.71 1211.67,-345.71 1207.83,-345.71 1204,-341.87 1204,-338.04 1204,-338.04 1204,-330.37 1204,-330.37 1204,-326.54 1207.83,-322.71 1211.67,-322.71 1211.67,-322.71 1342.33,-322.71 1342.33,-322.71 1346.17,-322.71 1350,-326.54 1350,-330.37 1350,-330.37 1350,-338.04 1350,-338.04 1350,-341.87 1346.17,-345.71 1342.33,-345.71"/>
<text text-anchor="middle" x="1277" y="-330.51" font-family="Arial" font-size="14.00" fill="#cfffac">shop/data/products.ts</text>
</g>
<!-- cart/Cart.ts&#45;&gt;shop/data/products.ts -->
<g id="edge2" class="edge">
<title>cart/Cart.ts&#45;&gt;shop/data/products.ts</title>
<path fill="none" stroke="#757575" d="M828.2,-153.24C849.73,-157.83 876.5,-164.09 900,-171.21 1010.93,-204.77 1048.7,-197.25 1144,-263.21 1163.94,-277.01 1159.67,-290.99 1180,-304.21 1189.51,-310.39 1200.38,-315.37 1211.3,-319.35"/>
<polygon fill="#757575" stroke="#757575" points="1210.28,-322.7 1220.88,-322.6 1212.53,-316.08 1210.28,-322.7"/>
</g>
<!-- utils/index.ts -->
<g id="node6" class="node">
<title>utils/index.ts</title>
<path fill="none" stroke="#c6c5fe" d="M1077.83,-589.71C1077.83,-589.71 1002.17,-589.71 1002.17,-589.71 998.33,-589.71 994.5,-585.87 994.5,-582.04 994.5,-582.04 994.5,-574.37 994.5,-574.37 994.5,-570.54 998.33,-566.71 1002.17,-566.71 1002.17,-566.71 1077.83,-566.71 1077.83,-566.71 1081.67,-566.71 1085.5,-570.54 1085.5,-574.37 1085.5,-574.37 1085.5,-582.04 1085.5,-582.04 1085.5,-585.87 1081.67,-589.71 1077.83,-589.71"/>
<text text-anchor="middle" x="1040" y="-574.51" font-family="Arial" font-size="14.00" fill="#c6c5fe">utils/index.ts</text>
</g>
<!-- cart/Cart.ts&#45;&gt;utils/index.ts -->
<g id="edge3" class="edge">
<title>cart/Cart.ts&#45;&gt;utils/index.ts</title>
<path fill="none" stroke="#757575" d="M805.38,-156.81C829.69,-173.39 873.22,-205.99 900,-243.21 939.02,-297.43 1008.85,-491.91 1031.61,-556.89"/>
<polygon fill="#757575" stroke="#757575" points="1028.36,-558.21 1034.96,-566.49 1034.97,-555.9 1028.36,-558.21"/>
</g>
<!-- cart/data/cart.ts&#45;&gt;shop/data/products.ts -->
<g id="edge7" class="edge">
<title>cart/data/cart.ts&#45;&gt;shop/data/products.ts</title>
<path fill="none" stroke="#757575" d="M1069.01,-156.79C1091.98,-167.58 1123.89,-185.68 1144,-210.21 1172.37,-244.8 1147.39,-273.58 1180,-304.21 1186.22,-310.05 1193.57,-314.75 1201.38,-318.54"/>
<polygon fill="#757575" stroke="#757575" points="1200.16,-321.83 1210.73,-322.58 1202.94,-315.4 1200.16,-321.83"/>
</g>
<!-- utils/OnEmit.ts -->
<g id="node25" class="node">
<title>utils/OnEmit.ts</title>
<path fill="none" stroke="#cfffac" d="M1321.83,-568.71C1321.83,-568.71 1232.17,-568.71 1232.17,-568.71 1228.33,-568.71 1224.5,-564.87 1224.5,-561.04 1224.5,-561.04 1224.5,-553.37 1224.5,-553.37 1224.5,-549.54 1228.33,-545.71 1232.17,-545.71 1232.17,-545.71 1321.83,-545.71 1321.83,-545.71 1325.67,-545.71 1329.5,-549.54 1329.5,-553.37 1329.5,-553.37 1329.5,-561.04 1329.5,-561.04 1329.5,-564.87 1325.67,-568.71 1321.83,-568.71"/>
<text text-anchor="middle" x="1277" y="-553.51" font-family="Arial" font-size="14.00" fill="#cfffac">utils/OnEmit.ts</text>
</g>
<!-- utils/index.ts&#45;&gt;utils/OnEmit.ts -->
<g id="edge55" class="edge">
<title>utils/index.ts&#45;&gt;utils/OnEmit.ts</title>
<path fill="none" stroke="#757575" d="M1085.75,-574.21C1122.22,-570.95 1174.09,-566.31 1214.46,-562.7"/>
<polygon fill="#757575" stroke="#757575" points="1214.81,-566.19 1224.46,-561.81 1214.18,-559.22 1214.81,-566.19"/>
</g>
<!-- utils/Subscribe.ts -->
<g id="node26" class="node">
<title>utils/Subscribe.ts</title>
<path fill="none" stroke="#cfffac" d="M1328.83,-527.71C1328.83,-527.71 1225.17,-527.71 1225.17,-527.71 1221.33,-527.71 1217.5,-523.87 1217.5,-520.04 1217.5,-520.04 1217.5,-512.37 1217.5,-512.37 1217.5,-508.54 1221.33,-504.71 1225.17,-504.71 1225.17,-504.71 1328.83,-504.71 1328.83,-504.71 1332.67,-504.71 1336.5,-508.54 1336.5,-512.37 1336.5,-512.37 1336.5,-520.04 1336.5,-520.04 1336.5,-523.87 1332.67,-527.71 1328.83,-527.71"/>
<text text-anchor="middle" x="1277" y="-512.51" font-family="Arial" font-size="14.00" fill="#cfffac">utils/Subscribe.ts</text>
</g>
<!-- utils/index.ts&#45;&gt;utils/Subscribe.ts -->
<g id="edge56" class="edge">
<title>utils/index.ts&#45;&gt;utils/Subscribe.ts</title>
<path fill="none" stroke="#757575" d="M1085.52,-568.48C1103.81,-564.1 1125.1,-558.49 1144,-552.21 1160.45,-546.74 1163.47,-542.41 1180,-537.21 1188.78,-534.44 1198.13,-531.91 1207.41,-529.63"/>
<polygon fill="#757575" stroke="#757575" points="1208.5,-532.97 1217.43,-527.26 1206.9,-526.16 1208.5,-532.97"/>
</g>
<!-- utils/array.ts -->
<g id="node27" class="node">
<title>utils/array.ts</title>
<path fill="none" stroke="#cfffac" d="M1313.83,-650.71C1313.83,-650.71 1240.17,-650.71 1240.17,-650.71 1236.33,-650.71 1232.5,-646.87 1232.5,-643.04 1232.5,-643.04 1232.5,-635.37 1232.5,-635.37 1232.5,-631.54 1236.33,-627.71 1240.17,-627.71 1240.17,-627.71 1313.83,-627.71 1313.83,-627.71 1317.67,-627.71 1321.5,-631.54 1321.5,-635.37 1321.5,-635.37 1321.5,-643.04 1321.5,-643.04 1321.5,-646.87 1317.67,-650.71 1313.83,-650.71"/>
<text text-anchor="middle" x="1277" y="-635.51" font-family="Arial" font-size="14.00" fill="#cfffac">utils/array.ts</text>
</g>
<!-- utils/index.ts&#45;&gt;utils/array.ts -->
<g id="edge57" class="edge">
<title>utils/index.ts&#45;&gt;utils/array.ts</title>
<path fill="none" stroke="#757575" d="M1077.07,-589.72C1105,-598.43 1144.74,-610.35 1180,-619.21 1193.69,-622.64 1208.57,-625.95 1222.45,-628.85"/>
<polygon fill="#757575" stroke="#757575" points="1221.84,-632.3 1232.34,-630.89 1223.25,-625.45 1221.84,-632.3"/>
</g>
<!-- utils/object.ts -->
<g id="node28" class="node">
<title>utils/object.ts</title>
<path fill="none" stroke="#cfffac" d="M1316.83,-609.71C1316.83,-609.71 1237.17,-609.71 1237.17,-609.71 1233.33,-609.71 1229.5,-605.87 1229.5,-602.04 1229.5,-602.04 1229.5,-594.37 1229.5,-594.37 1229.5,-590.54 1233.33,-586.71 1237.17,-586.71 1237.17,-586.71 1316.83,-586.71 1316.83,-586.71 1320.67,-586.71 1324.5,-590.54 1324.5,-594.37 1324.5,-594.37 1324.5,-602.04 1324.5,-602.04 1324.5,-605.87 1320.67,-609.71 1316.83,-609.71"/>
<text text-anchor="middle" x="1277" y="-594.51" font-family="Arial" font-size="14.00" fill="#cfffac">utils/object.ts</text>
</g>
<!-- utils/index.ts&#45;&gt;utils/object.ts -->
<g id="edge58" class="edge">
<title>utils/index.ts&#45;&gt;utils/object.ts</title>
<path fill="none" stroke="#757575" d="M1085.75,-582.01C1123.69,-585.24 1178.3,-589.89 1219.29,-593.38"/>
<polygon fill="#757575" stroke="#757575" points="1219.14,-596.88 1229.4,-594.24 1219.73,-589.9 1219.14,-596.88"/>
</g>
<!-- cart/CartController.ts -->
<g id="node7" class="node">
<title>cart/CartController.ts</title>
<path fill="none" stroke="#c6c5fe" d="M603.83,-76.71C603.83,-76.71 479.17,-76.71 479.17,-76.71 475.33,-76.71 471.5,-72.87 471.5,-69.04 471.5,-69.04 471.5,-61.37 471.5,-61.37 471.5,-57.54 475.33,-53.71 479.17,-53.71 479.17,-53.71 603.83,-53.71 603.83,-53.71 607.67,-53.71 611.5,-57.54 611.5,-61.37 611.5,-61.37 611.5,-69.04 611.5,-69.04 611.5,-72.87 607.67,-76.71 603.83,-76.71"/>
<text text-anchor="middle" x="541.5" y="-61.51" font-family="Arial" font-size="14.00" fill="#c6c5fe">cart/CartController.ts</text>
</g>
<!-- cart/CartController.ts&#45;&gt;cart/Cart.ts -->
<g id="edge4" class="edge">
<title>cart/CartController.ts&#45;&gt;cart/Cart.ts</title>
<path fill="none" stroke="#757575" d="M577.57,-76.75C620.64,-90.93 693.76,-115 740.81,-130.49"/>
<polygon fill="#757575" stroke="#757575" points="739.84,-133.86 750.44,-133.66 742.03,-127.21 739.84,-133.86"/>
</g>
<!-- cart/views/CartRenderer.ts -->
<g id="node8" class="node">
<title>cart/views/CartRenderer.ts</title>
<path fill="none" stroke="#c6c5fe" d="M866.83,-76.71C866.83,-76.71 706.17,-76.71 706.17,-76.71 702.33,-76.71 698.5,-72.87 698.5,-69.04 698.5,-69.04 698.5,-61.37 698.5,-61.37 698.5,-57.54 702.33,-53.71 706.17,-53.71 706.17,-53.71 866.83,-53.71 866.83,-53.71 870.67,-53.71 874.5,-57.54 874.5,-61.37 874.5,-61.37 874.5,-69.04 874.5,-69.04 874.5,-72.87 870.67,-76.71 866.83,-76.71"/>
<text text-anchor="middle" x="786.5" y="-61.51" font-family="Arial" font-size="14.00" fill="#c6c5fe">cart/views/CartRenderer.ts</text>
</g>
<!-- cart/CartController.ts&#45;&gt;cart/views/CartRenderer.ts -->
<g id="edge5" class="edge">
<title>cart/CartController.ts&#45;&gt;cart/views/CartRenderer.ts</title>
<path fill="none" stroke="#757575" d="M611.81,-65.21C635.59,-65.21 662.66,-65.21 688.23,-65.21"/>
<polygon fill="#757575" stroke="#757575" points="688.33,-68.71 698.33,-65.21 688.33,-61.71 688.33,-68.71"/>
</g>
<!-- cart/views/CartTotalRenderer.ts -->
<g id="node9" class="node">
<title>cart/views/CartTotalRenderer.ts</title>
<path fill="none" stroke="#c6c5fe" d="M880.83,-35.71C880.83,-35.71 692.17,-35.71 692.17,-35.71 688.33,-35.71 684.5,-31.87 684.5,-28.04 684.5,-28.04 684.5,-20.37 684.5,-20.37 684.5,-16.54 688.33,-12.71 692.17,-12.71 692.17,-12.71 880.83,-12.71 880.83,-12.71 884.67,-12.71 888.5,-16.54 888.5,-20.37 888.5,-20.37 888.5,-28.04 888.5,-28.04 888.5,-31.87 884.67,-35.71 880.83,-35.71"/>
<text text-anchor="middle" x="786.5" y="-20.51" font-family="Arial" font-size="14.00" fill="#c6c5fe">cart/views/CartTotalRenderer.ts</text>
</g>
<!-- cart/CartController.ts&#45;&gt;cart/views/CartTotalRenderer.ts -->
<g id="edge6" class="edge">
<title>cart/CartController.ts&#45;&gt;cart/views/CartTotalRenderer.ts</title>
<path fill="none" stroke="#757575" d="M610.84,-53.68C640.86,-48.61 676.27,-42.63 707.34,-37.39"/>
<polygon fill="#757575" stroke="#757575" points="707.98,-40.83 717.26,-35.72 706.81,-33.93 707.98,-40.83"/>
</g>
<!-- cart/views/CartRenderer.ts&#45;&gt;abstracts/AbstractRenderer.ts -->
<g id="edge13" class="edge">
<title>cart/views/CartRenderer.ts&#45;&gt;abstracts/AbstractRenderer.ts</title>
<path fill="none" stroke="#757575" d="M854.89,-53.67C930.52,-44.27 1054.37,-39.81 1144,-91.21 1212.27,-130.36 1253.02,-220.9 1268.64,-262.1"/>
<polygon fill="#757575" stroke="#757575" points="1265.42,-263.49 1272.15,-271.68 1271.99,-261.08 1265.42,-263.49"/>
</g>
<!-- cart/views/CartRenderer.ts&#45;&gt;cart/data/cart.ts -->
<g id="edge14" class="edge">
<title>cart/views/CartRenderer.ts&#45;&gt;cart/data/cart.ts</title>
<path fill="none" stroke="#757575" d="M858.7,-76.73C872.77,-80.37 887.15,-85.09 900,-91.21 918.3,-99.91 917.78,-110.31 936,-119.21 948.08,-125.1 961.64,-129.75 974.85,-133.38"/>
<polygon fill="#757575" stroke="#757575" points="974.3,-136.86 984.85,-135.97 976.05,-130.08 974.3,-136.86"/>
</g>
<!-- cart/views/CartRenderer.ts&#45;&gt;shop/data/products.ts -->
<g id="edge15" class="edge">
<title>cart/views/CartRenderer.ts&#45;&gt;shop/data/products.ts</title>
<path fill="none" stroke="#757575" d="M870.34,-76.74C972.56,-91.33 1134.18,-115.69 1144,-125.21 1202.28,-181.67 1125.69,-243.91 1180,-304.21 1185.06,-309.82 1191.16,-314.4 1197.8,-318.13"/>
<polygon fill="#757575" stroke="#757575" points="1196.61,-321.45 1207.13,-322.7 1199.69,-315.16 1196.61,-321.45"/>
</g>
<!-- cart/views/CartTotalRenderer.ts&#45;&gt;abstracts/AbstractRenderer.ts -->
<g id="edge16" class="edge">
<title>cart/views/CartTotalRenderer.ts&#45;&gt;abstracts/AbstractRenderer.ts</title>
<path fill="none" stroke="#757575" d="M838.43,-12.69C912.04,0.98 1049.66,15.09 1144,-44.21 1224.59,-94.86 1259.97,-213.11 1271.48,-261.73"/>
<polygon fill="#757575" stroke="#757575" points="1268.07,-262.53 1273.69,-271.51 1274.9,-260.99 1268.07,-262.53"/>
</g>
<!-- cart/index.ts -->
<g id="node10" class="node">
<title>cart/index.ts</title>
<path fill="none" stroke="#c6c5fe" d="M356.33,-96.71C356.33,-96.71 282.67,-96.71 282.67,-96.71 278.83,-96.71 275,-92.87 275,-89.04 275,-89.04 275,-81.37 275,-81.37 275,-77.54 278.83,-73.71 282.67,-73.71 282.67,-73.71 356.33,-73.71 356.33,-73.71 360.17,-73.71 364,-77.54 364,-81.37 364,-81.37 364,-89.04 364,-89.04 364,-92.87 360.17,-96.71 356.33,-96.71"/>
<text text-anchor="middle" x="319.5" y="-81.51" font-family="Arial" font-size="14.00" fill="#c6c5fe">cart/index.ts</text>
</g>
<!-- cart/index.ts&#45;&gt;cart/Cart.ts -->
<g id="edge8" class="edge">
<title>cart/index.ts&#45;&gt;cart/Cart.ts</title>
<path fill="none" stroke="#757575" d="M356.07,-96.77C380.98,-104.38 415.19,-113.9 446,-119.21 547.47,-136.68 668.03,-142.41 734.73,-144.29"/>
<polygon fill="#757575" stroke="#757575" points="734.87,-147.79 744.96,-144.56 735.05,-140.8 734.87,-147.79"/>
</g>
<!-- cart/index.ts&#45;&gt;cart/data/cart.ts -->
<g id="edge10" class="edge">
<title>cart/index.ts&#45;&gt;cart/data/cart.ts</title>
<path fill="none" stroke="#757575" d="M364.21,-87.12C460.96,-91.59 700.44,-103.99 900,-125.21 924.5,-127.81 951.31,-131.47 974.8,-134.96"/>
<polygon fill="#757575" stroke="#757575" points="974.58,-138.46 984.99,-136.49 975.62,-131.54 974.58,-138.46"/>
</g>
<!-- cart/index.ts&#45;&gt;cart/CartController.ts -->
<g id="edge9" class="edge">
<title>cart/index.ts&#45;&gt;cart/CartController.ts</title>
<path fill="none" stroke="#757575" d="M364.23,-81.23C391.94,-78.71 428.59,-75.38 461.29,-72.41"/>
<polygon fill="#757575" stroke="#757575" points="461.66,-75.89 471.3,-71.5 461.03,-68.92 461.66,-75.89"/>
</g>
<!-- cart/index.ts&#45;&gt;cart/views/CartRenderer.ts -->
<g id="edge11" class="edge">
<title>cart/index.ts&#45;&gt;cart/views/CartRenderer.ts</title>
<path fill="none" stroke="#757575" d="M347.31,-73.7C372.31,-63.64 410.91,-49.79 446,-44.21 538.69,-29.45 647.14,-41.11 716.06,-52.07"/>
<polygon fill="#757575" stroke="#757575" points="715.51,-55.53 725.94,-53.68 716.63,-48.62 715.51,-55.53"/>
</g>
<!-- cart/index.ts&#45;&gt;cart/views/CartTotalRenderer.ts -->
<g id="edge12" class="edge">
<title>cart/index.ts&#45;&gt;cart/views/CartTotalRenderer.ts</title>
<path fill="none" stroke="#757575" d="M342.41,-73.49C366.87,-61.08 408.03,-42.21 446,-34.21 521.05,-18.39 607.48,-16.06 674.35,-17.6"/>
<polygon fill="#757575" stroke="#757575" points="674.4,-21.1 684.49,-17.87 674.59,-14.11 674.4,-21.1"/>
</g>
<!-- main.ts -->
<g id="node11" class="node">
<title>main.ts</title>
<path fill="none" stroke="#c6c5fe" d="M53.33,-422.71C53.33,-422.71 7.67,-422.71 7.67,-422.71 3.83,-422.71 0,-418.87 0,-415.04 0,-415.04 0,-407.37 0,-407.37 0,-403.54 3.83,-399.71 7.67,-399.71 7.67,-399.71 53.33,-399.71 53.33,-399.71 57.17,-399.71 61,-403.54 61,-407.37 61,-407.37 61,-415.04 61,-415.04 61,-418.87 57.17,-422.71 53.33,-422.71"/>
<text text-anchor="middle" x="30.5" y="-407.51" font-family="Arial" font-size="14.00" fill="#c6c5fe">main.ts</text>
</g>
<!-- main.ts&#45;&gt;cart.scss -->
<g id="edge17" class="edge">
<title>main.ts&#45;&gt;cart.scss</title>
<path fill="none" stroke="#757575" d="M44.48,-423.13C57.31,-434.61 77.75,-452.11 97,-465.21 101.72,-468.42 106.88,-471.58 111.98,-474.54"/>
<polygon fill="#757575" stroke="#757575" points="110.59,-477.77 121.02,-479.59 114.01,-471.66 110.59,-477.77"/>
</g>
<!-- main.ts&#45;&gt;cart/index.ts -->
<g id="edge18" class="edge">
<title>main.ts&#45;&gt;cart/index.ts</title>
<path fill="none" stroke="#757575" d="M61.24,-402.08C105.41,-388.27 184.11,-362.58 193,-352.21 246.37,-289.92 189.62,-243.15 229,-171.21 244.39,-143.09 272.11,-118.61 292.64,-103.04"/>
<polygon fill="#757575" stroke="#757575" points="294.96,-105.67 300.94,-96.92 290.81,-100.03 294.96,-105.67"/>
</g>
<!-- router/index.ts -->
<g id="node12" class="node">
<title>router/index.ts</title>
<path fill="none" stroke="#c6c5fe" d="M362.83,-648.71C362.83,-648.71 276.17,-648.71 276.17,-648.71 272.33,-648.71 268.5,-644.87 268.5,-641.04 268.5,-641.04 268.5,-633.37 268.5,-633.37 268.5,-629.54 272.33,-625.71 276.17,-625.71 276.17,-625.71 362.83,-625.71 362.83,-625.71 366.67,-625.71 370.5,-629.54 370.5,-633.37 370.5,-633.37 370.5,-641.04 370.5,-641.04 370.5,-644.87 366.67,-648.71 362.83,-648.71"/>
<text text-anchor="middle" x="319.5" y="-633.51" font-family="Arial" font-size="14.00" fill="#c6c5fe">router/index.ts</text>
</g>
<!-- main.ts&#45;&gt;router/index.ts -->
<g id="edge19" class="edge">
<title>main.ts&#45;&gt;router/index.ts</title>
<path fill="none" stroke="#757575" d="M61.33,-420.89C105.21,-435.35 183.05,-461.86 193,-471.21 221.71,-498.18 206.28,-520.02 229,-552.21 247.6,-578.55 275.26,-603.3 294.9,-619.22"/>
<polygon fill="#757575" stroke="#757575" points="292.78,-622 302.78,-625.48 297.13,-616.52 292.78,-622"/>
</g>
<!-- shop/index.ts -->
<g id="node13" class="node">
<title>shop/index.ts</title>
<path fill="none" stroke="#c6c5fe" d="M185.33,-422.71C185.33,-422.71 104.67,-422.71 104.67,-422.71 100.83,-422.71 97,-418.87 97,-415.04 97,-415.04 97,-407.37 97,-407.37 97,-403.54 100.83,-399.71 104.67,-399.71 104.67,-399.71 185.33,-399.71 185.33,-399.71 189.17,-399.71 193,-403.54 193,-407.37 193,-407.37 193,-415.04 193,-415.04 193,-418.87 189.17,-422.71 185.33,-422.71"/>
<text text-anchor="middle" x="145" y="-407.51" font-family="Arial" font-size="14.00" fill="#c6c5fe">shop/index.ts</text>
</g>
<!-- main.ts&#45;&gt;shop/index.ts -->
<g id="edge20" class="edge">
<title>main.ts&#45;&gt;shop/index.ts</title>
<path fill="none" stroke="#757575" d="M61.06,-411.21C69,-411.21 77.88,-411.21 86.78,-411.21"/>
<polygon fill="#757575" stroke="#757575" points="86.8,-414.71 96.8,-411.21 86.8,-407.71 86.8,-414.71"/>
</g>
<!-- style.css -->
<g id="node14" class="node">
<title>style.css</title>
<path fill="none" stroke="#cfffac" d="M171.33,-342.71C171.33,-342.71 118.67,-342.71 118.67,-342.71 114.83,-342.71 111,-338.87 111,-335.04 111,-335.04 111,-327.37 111,-327.37 111,-323.54 114.83,-319.71 118.67,-319.71 118.67,-319.71 171.33,-319.71 171.33,-319.71 175.17,-319.71 179,-323.54 179,-327.37 179,-327.37 179,-335.04 179,-335.04 179,-338.87 175.17,-342.71 171.33,-342.71"/>
<text text-anchor="middle" x="145" y="-327.51" font-family="Arial" font-size="14.00" fill="#cfffac">style.css</text>
</g>
<!-- main.ts&#45;&gt;style.css -->
<g id="edge21" class="edge">
<title>main.ts&#45;&gt;style.css</title>
<path fill="none" stroke="#757575" d="M44.48,-399.28C57.31,-387.8 77.75,-370.3 97,-357.21 101.72,-353.99 106.88,-350.83 111.98,-347.87"/>
<polygon fill="#757575" stroke="#757575" points="114.01,-350.75 121.02,-342.82 110.59,-344.64 114.01,-350.75"/>
</g>
<!-- router/NavigationController.ts -->
<g id="node15" class="node">
<title>router/NavigationController.ts</title>
<path fill="none" stroke="#c6c5fe" d="M629.33,-628.71C629.33,-628.71 453.67,-628.71 453.67,-628.71 449.83,-628.71 446,-624.87 446,-621.04 446,-621.04 446,-613.37 446,-613.37 446,-609.54 449.83,-605.71 453.67,-605.71 453.67,-605.71 629.33,-605.71 629.33,-605.71 633.17,-605.71 637,-609.54 637,-613.37 637,-613.37 637,-621.04 637,-621.04 637,-624.87 633.17,-628.71 629.33,-628.71"/>
<text text-anchor="middle" x="541.5" y="-613.51" font-family="Arial" font-size="14.00" fill="#c6c5fe">router/NavigationController.ts</text>
</g>
<!-- router/index.ts&#45;&gt;router/NavigationController.ts -->
<g id="edge28" class="edge">
<title>router/index.ts&#45;&gt;router/NavigationController.ts</title>
<path fill="none" stroke="#757575" d="M370.7,-632.64C390.14,-630.87 413.16,-628.78 435.88,-626.72"/>
<polygon fill="#757575" stroke="#757575" points="436.29,-630.19 445.93,-625.8 435.66,-623.22 436.29,-630.19"/>
</g>
<!-- router/Router.ts -->
<g id="node16" class="node">
<title>router/Router.ts</title>
<path fill="none" stroke="#c6c5fe" d="M833.83,-668.71C833.83,-668.71 739.17,-668.71 739.17,-668.71 735.33,-668.71 731.5,-664.87 731.5,-661.04 731.5,-661.04 731.5,-653.37 731.5,-653.37 731.5,-649.54 735.33,-645.71 739.17,-645.71 739.17,-645.71 833.83,-645.71 833.83,-645.71 837.67,-645.71 841.5,-649.54 841.5,-653.37 841.5,-653.37 841.5,-661.04 841.5,-661.04 841.5,-664.87 837.67,-668.71 833.83,-668.71"/>
<text text-anchor="middle" x="786.5" y="-653.51" font-family="Arial" font-size="14.00" fill="#c6c5fe">router/Router.ts</text>
</g>
<!-- router/index.ts&#45;&gt;router/Router.ts -->
<g id="edge29" class="edge">
<title>router/index.ts&#45;&gt;router/Router.ts</title>
<path fill="none" stroke="#757575" d="M370.7,-639.36C455.59,-643.02 627.35,-650.4 721.02,-654.43"/>
<polygon fill="#757575" stroke="#757575" points="721.07,-657.94 731.21,-654.87 721.37,-650.94 721.07,-657.94"/>
</g>
<!-- router/data/routes.ts -->
<g id="node17" class="node">
<title>router/data/routes.ts</title>
<path fill="none" stroke="#cfffac" d="M1100.83,-688.71C1100.83,-688.71 979.17,-688.71 979.17,-688.71 975.33,-688.71 971.5,-684.87 971.5,-681.04 971.5,-681.04 971.5,-673.37 971.5,-673.37 971.5,-669.54 975.33,-665.71 979.17,-665.71 979.17,-665.71 1100.83,-665.71 1100.83,-665.71 1104.67,-665.71 1108.5,-669.54 1108.5,-673.37 1108.5,-673.37 1108.5,-681.04 1108.5,-681.04 1108.5,-684.87 1104.67,-688.71 1100.83,-688.71"/>
<text text-anchor="middle" x="1040" y="-673.51" font-family="Arial" font-size="14.00" fill="#cfffac">router/data/routes.ts</text>
</g>
<!-- router/index.ts&#45;&gt;router/data/routes.ts -->
<g id="edge30" class="edge">
<title>router/index.ts&#45;&gt;router/data/routes.ts</title>
<path fill="none" stroke="#757575" d="M370.55,-646.51C393.53,-650.75 421.14,-655.79 446,-660.21 546.79,-678.1 571,-690.51 673,-699.21 773.52,-707.78 799.42,-707.12 900,-699.21 922.71,-697.42 947.31,-694.02 969.41,-690.41"/>
<polygon fill="#757575" stroke="#757575" points="970.09,-693.85 979.38,-688.75 968.94,-686.94 970.09,-693.85"/>
</g>
<!-- shop/index.ts&#45;&gt;shop/data/products.ts -->
<g id="edge47" class="edge">
<title>shop/index.ts&#45;&gt;shop/data/products.ts</title>
<path fill="none" stroke="#757575" d="M182.56,-422.85C186.18,-424.47 189.72,-426.25 193,-428.21 211.4,-439.15 210.07,-450.21 229,-460.21 355.19,-526.87 397.78,-538.21 540.5,-538.21 540.5,-538.21 540.5,-538.21 787.5,-538.21 847.51,-538.21 1088.56,-507.34 1144,-477.21 1198.84,-447.39 1243.28,-386.13 1263.76,-354.34"/>
<polygon fill="#757575" stroke="#757575" points="1266.75,-356.17 1269.12,-345.84 1260.82,-352.44 1266.75,-356.17"/>
</g>
<!-- shop/InsertCart.ts -->
<g id="node19" class="node">
<title>shop/InsertCart.ts</title>
<path fill="none" stroke="#c6c5fe" d="M595.33,-353.71C595.33,-353.71 487.67,-353.71 487.67,-353.71 483.83,-353.71 480,-349.87 480,-346.04 480,-346.04 480,-338.37 480,-338.37 480,-334.54 483.83,-330.71 487.67,-330.71 487.67,-330.71 595.33,-330.71 595.33,-330.71 599.17,-330.71 603,-334.54 603,-338.37 603,-338.37 603,-346.04 603,-346.04 603,-349.87 599.17,-353.71 595.33,-353.71"/>
<text text-anchor="middle" x="541.5" y="-338.51" font-family="Arial" font-size="14.00" fill="#c6c5fe">shop/InsertCart.ts</text>
</g>
<!-- shop/index.ts&#45;&gt;shop/InsertCart.ts -->
<g id="edge45" class="edge">
<title>shop/index.ts&#45;&gt;shop/InsertCart.ts</title>
<path fill="none" stroke="#757575" d="M191.08,-399.64C203.34,-396.69 216.64,-393.66 229,-391.21 311.14,-374.88 406.35,-360.56 469.68,-351.69"/>
<polygon fill="#757575" stroke="#757575" points="470.53,-355.11 479.95,-350.26 469.56,-348.17 470.53,-355.11"/>
</g>
<!-- shop/views/MiniCartRenderer.ts -->
<g id="node22" class="node">
<title>shop/views/MiniCartRenderer.ts</title>
<path fill="none" stroke="#c6c5fe" d="M1136.33,-294.71C1136.33,-294.71 943.67,-294.71 943.67,-294.71 939.83,-294.71 936,-290.87 936,-287.04 936,-287.04 936,-279.37 936,-279.37 936,-275.54 939.83,-271.71 943.67,-271.71 943.67,-271.71 1136.33,-271.71 1136.33,-271.71 1140.17,-271.71 1144,-275.54 1144,-279.37 1144,-279.37 1144,-287.04 1144,-287.04 1144,-290.87 1140.17,-294.71 1136.33,-294.71"/>
<text text-anchor="middle" x="1040" y="-279.51" font-family="Arial" font-size="14.00" fill="#c6c5fe">shop/views/MiniCartRenderer.ts</text>
</g>
<!-- shop/index.ts&#45;&gt;shop/views/MiniCartRenderer.ts -->
<g id="edge48" class="edge">
<title>shop/index.ts&#45;&gt;shop/views/MiniCartRenderer.ts</title>
<path fill="none" stroke="#757575" d="M168.94,-399.54C176.75,-395.31 185.42,-390.3 193,-385.21 210.05,-373.75 210.82,-365.78 229,-356.21 411.28,-260.24 469.18,-253.08 673,-223.21 772.82,-208.58 801.2,-202.79 900,-223.21 910.75,-225.43 966.67,-250.3 1004.22,-267.32"/>
<polygon fill="#757575" stroke="#757575" points="1003.25,-270.72 1013.81,-271.67 1006.15,-264.35 1003.25,-270.72"/>
</g>
<!-- shop/InsertCartController.ts -->
<g id="node23" class="node">
<title>shop/InsertCartController.ts</title>
<path fill="none" stroke="#c6c5fe" d="M402.33,-422.71C402.33,-422.71 236.67,-422.71 236.67,-422.71 232.83,-422.71 229,-418.87 229,-415.04 229,-415.04 229,-407.37 229,-407.37 229,-403.54 232.83,-399.71 236.67,-399.71 236.67,-399.71 402.33,-399.71 402.33,-399.71 406.17,-399.71 410,-403.54 410,-407.37 410,-407.37 410,-415.04 410,-415.04 410,-418.87 406.17,-422.71 402.33,-422.71"/>
<text text-anchor="middle" x="319.5" y="-407.51" font-family="Arial" font-size="14.00" fill="#c6c5fe">shop/InsertCartController.ts</text>
</g>
<!-- shop/index.ts&#45;&gt;shop/InsertCartController.ts -->
<g id="edge46" class="edge">
<title>shop/index.ts&#45;&gt;shop/InsertCartController.ts</title>
<path fill="none" stroke="#757575" d="M193.14,-411.21C201.25,-411.21 209.96,-411.21 218.86,-411.21"/>
<polygon fill="#757575" stroke="#757575" points="218.97,-414.71 228.97,-411.21 218.97,-407.71 218.97,-414.71"/>
</g>
<!-- shop/views/ProductsRenderer.ts -->
<g id="node24" class="node">
<title>shop/views/ProductsRenderer.ts</title>
<path fill="none" stroke="#c6c5fe" d="M883.83,-509.71C883.83,-509.71 689.17,-509.71 689.17,-509.71 685.33,-509.71 681.5,-505.87 681.5,-502.04 681.5,-502.04 681.5,-494.37 681.5,-494.37 681.5,-490.54 685.33,-486.71 689.17,-486.71 689.17,-486.71 883.83,-486.71 883.83,-486.71 887.67,-486.71 891.5,-490.54 891.5,-494.37 891.5,-494.37 891.5,-502.04 891.5,-502.04 891.5,-505.87 887.67,-509.71 883.83,-509.71"/>
<text text-anchor="middle" x="786.5" y="-494.51" font-family="Arial" font-size="14.00" fill="#c6c5fe">shop/views/ProductsRenderer.ts</text>
</g>
<!-- shop/index.ts&#45;&gt;shop/views/ProductsRenderer.ts -->
<g id="edge49" class="edge">
<title>shop/index.ts&#45;&gt;shop/views/ProductsRenderer.ts</title>
<path fill="none" stroke="#757575" d="M188.49,-422.72C201.44,-426.02 215.75,-429.47 229,-432.21 380.33,-463.49 558.1,-481.36 671.24,-490.42"/>
<polygon fill="#757575" stroke="#757575" points="671.07,-493.92 681.31,-491.22 671.62,-486.94 671.07,-493.92"/>
</g>
<!-- router/NavigationController.ts&#45;&gt;utils/index.ts -->
<g id="edge25" class="edge">
<title>router/NavigationController.ts&#45;&gt;utils/index.ts</title>
<path fill="none" stroke="#757575" d="M605.04,-605.7C626.52,-602.14 650.75,-598.54 673,-596.21 783.06,-584.68 912.53,-580.51 984.22,-579.01"/>
<polygon fill="#757575" stroke="#757575" points="984.44,-582.51 994.37,-578.81 984.3,-575.51 984.44,-582.51"/>
</g>
<!-- router/NavigationController.ts&#45;&gt;router/Router.ts -->
<g id="edge22" class="edge">
<title>router/NavigationController.ts&#45;&gt;router/Router.ts</title>
<path fill="none" stroke="#757575" d="M612.46,-628.72C646.77,-634.37 687.8,-641.12 721.3,-646.64"/>
<polygon fill="#757575" stroke="#757575" points="721.01,-650.14 731.44,-648.31 722.14,-643.23 721.01,-650.14"/>
</g>
<!-- router/NavigationController.ts&#45;&gt;router/data/routes.ts -->
<g id="edge23" class="edge">
<title>router/NavigationController.ts&#45;&gt;router/data/routes.ts</title>
<path fill="none" stroke="#757575" d="M560.59,-628.81C584.98,-643.69 630.28,-668.71 673,-678.21 770.45,-699.86 886.14,-694.56 960.98,-687.23"/>
<polygon fill="#757575" stroke="#757575" points="961.67,-690.68 971.26,-686.19 960.96,-683.71 961.67,-690.68"/>
</g>
<!-- router/views/NavigationRenderer.ts -->
<g id="node18" class="node">
<title>router/views/NavigationRenderer.ts</title>
<path fill="none" stroke="#c6c5fe" d="M892.33,-627.71C892.33,-627.71 680.67,-627.71 680.67,-627.71 676.83,-627.71 673,-623.87 673,-620.04 673,-620.04 673,-612.37 673,-612.37 673,-608.54 676.83,-604.71 680.67,-604.71 680.67,-604.71 892.33,-604.71 892.33,-604.71 896.17,-604.71 900,-608.54 900,-612.37 900,-612.37 900,-620.04 900,-620.04 900,-623.87 896.17,-627.71 892.33,-627.71"/>
<text text-anchor="middle" x="786.5" y="-612.51" font-family="Arial" font-size="14.00" fill="#c6c5fe">router/views/NavigationRenderer.ts</text>
</g>
<!-- router/NavigationController.ts&#45;&gt;router/views/NavigationRenderer.ts -->
<g id="edge24" class="edge">
<title>router/NavigationController.ts&#45;&gt;router/views/NavigationRenderer.ts</title>
<path fill="none" stroke="#757575" d="M637.15,-616.82C645.57,-616.78 654.19,-616.75 662.8,-616.71"/>
<polygon fill="#757575" stroke="#757575" points="662.93,-620.21 672.91,-616.67 662.9,-613.21 662.93,-620.21"/>
</g>
<!-- router/Router.ts&#45;&gt;utils/index.ts -->
<g id="edge27" class="edge">
<title>router/Router.ts&#45;&gt;utils/index.ts</title>
<path fill="none" stroke="#757575" d="M841.58,-650.13C860.3,-647.01 881.27,-642.77 900,-637.21 937.77,-625.99 979.09,-607.61 1006.79,-594.34"/>
<polygon fill="#757575" stroke="#757575" points="1008.51,-597.39 1015.98,-589.88 1005.46,-591.1 1008.51,-597.39"/>
</g>
<!-- router/Router.ts&#45;&gt;router/data/routes.ts -->
<g id="edge26" class="edge">
<title>router/Router.ts&#45;&gt;router/data/routes.ts</title>
<path fill="none" stroke="#757575" d="M841.76,-661.52C876.62,-664.29 922.46,-667.94 961.18,-671.02"/>
<polygon fill="#757575" stroke="#757575" points="961.13,-674.52 971.37,-671.83 961.68,-667.55 961.13,-674.52"/>
</g>
<!-- router/views/NavigationRenderer.ts&#45;&gt;abstracts/AbstractRenderer.ts -->
<g id="edge31" class="edge">
<title>router/views/NavigationRenderer.ts&#45;&gt;abstracts/AbstractRenderer.ts</title>
<path fill="none" stroke="#757575" d="M816.24,-604.55C882.17,-576.55 1046.13,-499.53 1144,-389.21 1168.54,-361.55 1152.15,-338.52 1180,-314.21 1187.42,-307.73 1196.22,-302.6 1205.42,-298.54"/>
<polygon fill="#757575" stroke="#757575" points="1206.74,-301.78 1214.73,-294.83 1204.14,-295.28 1206.74,-301.78"/>
</g>
<!-- router/views/NavigationRenderer.ts&#45;&gt;utils/index.ts -->
<g id="edge33" class="edge">
<title>router/views/NavigationRenderer.ts&#45;&gt;utils/index.ts</title>
<path fill="none" stroke="#757575" d="M863.64,-604.7C902.46,-598.84 948.79,-591.84 984.08,-586.5"/>
<polygon fill="#757575" stroke="#757575" points="984.82,-589.93 994.19,-584.98 983.77,-583.01 984.82,-589.93"/>
</g>
<!-- router/views/NavigationRenderer.ts&#45;&gt;router/data/routes.ts -->
<g id="edge32" class="edge">
<title>router/views/NavigationRenderer.ts&#45;&gt;router/data/routes.ts</title>
<path fill="none" stroke="#757575" d="M854.94,-627.71C869.84,-630.55 885.5,-633.77 900,-637.21 931.09,-644.56 965.62,-654.49 992.48,-662.61"/>
<polygon fill="#757575" stroke="#757575" points="991.79,-666.06 1002.38,-665.63 993.83,-659.36 991.79,-666.06"/>
</g>
<!-- shop/InsertCart.ts&#45;&gt;shop/data/products.ts -->
<g id="edge36" class="edge">
<title>shop/InsertCart.ts&#45;&gt;shop/data/products.ts</title>
<path fill="none" stroke="#757575" d="M603.15,-341.54C734.29,-340.11 1044.41,-336.73 1193.35,-335.11"/>
<polygon fill="#757575" stroke="#757575" points="1193.83,-338.6 1203.79,-334.99 1193.75,-331.6 1193.83,-338.6"/>
</g>
<!-- shop/InsertCart.ts&#45;&gt;utils/index.ts -->
<g id="edge38" class="edge">
<title>shop/InsertCart.ts&#45;&gt;utils/index.ts</title>
<path fill="none" stroke="#757575" d="M582.85,-353.78C650.67,-374.04 790.79,-419.45 900,-478.21 944.41,-502.1 991,-538.24 1017.38,-559.9"/>
<polygon fill="#757575" stroke="#757575" points="1015.27,-562.7 1025.21,-566.39 1019.74,-557.31 1015.27,-562.7"/>
</g>
<!-- shop/api/dummyBuyAPI.ts -->
<g id="node20" class="node">
<title>shop/api/dummyBuyAPI.ts</title>
<path fill="none" stroke="#c6c5fe" d="M866.83,-315.71C866.83,-315.71 706.17,-315.71 706.17,-315.71 702.33,-315.71 698.5,-311.87 698.5,-308.04 698.5,-308.04 698.5,-300.37 698.5,-300.37 698.5,-296.54 702.33,-292.71 706.17,-292.71 706.17,-292.71 866.83,-292.71 866.83,-292.71 870.67,-292.71 874.5,-296.54 874.5,-300.37 874.5,-300.37 874.5,-308.04 874.5,-308.04 874.5,-311.87 870.67,-315.71 866.83,-315.71"/>
<text text-anchor="middle" x="786.5" y="-300.51" font-family="Arial" font-size="14.00" fill="#c6c5fe">shop/api/dummyBuyAPI.ts</text>
</g>
<!-- shop/InsertCart.ts&#45;&gt;shop/api/dummyBuyAPI.ts -->
<g id="edge34" class="edge">
<title>shop/InsertCart.ts&#45;&gt;shop/api/dummyBuyAPI.ts</title>
<path fill="none" stroke="#757575" d="M603.19,-332.71C633,-328.05 669.39,-322.36 701.8,-317.29"/>
<polygon fill="#757575" stroke="#757575" points="702.38,-320.75 711.72,-315.74 701.3,-313.83 702.38,-320.75"/>
</g>
<!-- shop/api/dummyProductAPI.ts -->
<g id="node21" class="node">
<title>shop/api/dummyProductAPI.ts</title>
<path fill="none" stroke="#c6c5fe" d="M878.83,-274.71C878.83,-274.71 694.17,-274.71 694.17,-274.71 690.33,-274.71 686.5,-270.87 686.5,-267.04 686.5,-267.04 686.5,-259.37 686.5,-259.37 686.5,-255.54 690.33,-251.71 694.17,-251.71 694.17,-251.71 878.83,-251.71 878.83,-251.71 882.67,-251.71 886.5,-255.54 886.5,-259.37 886.5,-259.37 886.5,-267.04 886.5,-267.04 886.5,-270.87 882.67,-274.71 878.83,-274.71"/>
<text text-anchor="middle" x="786.5" y="-259.51" font-family="Arial" font-size="14.00" fill="#c6c5fe">shop/api/dummyProductAPI.ts</text>
</g>
<!-- shop/InsertCart.ts&#45;&gt;shop/api/dummyProductAPI.ts -->
<g id="edge35" class="edge">
<title>shop/InsertCart.ts&#45;&gt;shop/api/dummyProductAPI.ts</title>
<path fill="none" stroke="#757575" d="M564.52,-330.51C589.97,-317.43 633.46,-296.5 673,-284.21 681.71,-281.5 690.91,-279.09 700.15,-276.95"/>
<polygon fill="#757575" stroke="#757575" points="701.16,-280.31 710.17,-274.74 699.65,-273.48 701.16,-280.31"/>
</g>
<!-- shop/InsertCart.ts&#45;&gt;shop/views/MiniCartRenderer.ts -->
<g id="edge37" class="edge">
<title>shop/InsertCart.ts&#45;&gt;shop/views/MiniCartRenderer.ts</title>
<path fill="none" stroke="#757575" d="M552.55,-330.69C572.73,-308.58 620.71,-260.8 673,-243.21 787.04,-204.84 931.27,-244.53 999.62,-268.22"/>
<polygon fill="#757575" stroke="#757575" points="998.55,-271.55 1009.14,-271.59 1000.88,-264.95 998.55,-271.55"/>
</g>
<!-- shop/api/dummyBuyAPI.ts&#45;&gt;shop/views/MiniCartRenderer.ts -->
<g id="edge43" class="edge">
<title>shop/api/dummyBuyAPI.ts&#45;&gt;shop/views/MiniCartRenderer.ts</title>
<path fill="none" stroke="#757575" d="M874.76,-296.92C891.24,-295.54 908.7,-294.08 925.85,-292.65"/>
<polygon fill="#757575" stroke="#757575" points="926.22,-296.13 935.9,-291.81 925.64,-289.16 926.22,-296.13"/>
</g>
<!-- shop/api/dummyProductAPI.ts&#45;&gt;shop/views/MiniCartRenderer.ts -->
<g id="edge44" class="edge">
<title>shop/api/dummyProductAPI.ts&#45;&gt;shop/views/MiniCartRenderer.ts</title>
<path fill="none" stroke="#757575" d="M886.54,-271.08C899.46,-272.11 912.78,-273.17 925.92,-274.21"/>
<polygon fill="#757575" stroke="#757575" points="925.67,-277.7 935.92,-275.01 926.22,-270.73 925.67,-277.7"/>
</g>
<!-- shop/views/MiniCartRenderer.ts&#45;&gt;abstracts/AbstractRenderer.ts -->
<g id="edge50" class="edge">
<title>shop/views/MiniCartRenderer.ts&#45;&gt;abstracts/AbstractRenderer.ts</title>
<path fill="none" stroke="#757575" d="M1144.07,-283.21C1152.49,-283.21 1161.01,-283.21 1169.45,-283.21"/>
<polygon fill="#757575" stroke="#757575" points="1169.7,-286.71 1179.7,-283.21 1169.7,-279.71 1169.7,-286.71"/>
</g>
<!-- shop/views/MiniCartRenderer.ts&#45;&gt;shop/data/products.ts -->
<g id="edge51" class="edge">
<title>shop/views/MiniCartRenderer.ts&#45;&gt;shop/data/products.ts</title>
<path fill="none" stroke="#757575" d="M1094.03,-294.71C1129.17,-302.34 1175.46,-312.39 1212.55,-320.44"/>
<polygon fill="#757575" stroke="#757575" points="1212.24,-323.95 1222.76,-322.65 1213.72,-317.11 1212.24,-323.95"/>
</g>
<!-- shop/InsertCartController.ts&#45;&gt;shop/data/products.ts -->
<g id="edge40" class="edge">
<title>shop/InsertCartController.ts&#45;&gt;shop/data/products.ts</title>
<path fill="none" stroke="#757575" d="M410.27,-409.2C473.67,-407.44 560.6,-404.34 637,-399.21 862.87,-384.02 918.95,-374.72 1144,-350.21 1160.06,-348.46 1177.2,-346.47 1193.63,-344.5"/>
<polygon fill="#757575" stroke="#757575" points="1194.25,-347.95 1203.76,-343.28 1193.41,-341 1194.25,-347.95"/>
</g>
<!-- shop/InsertCartController.ts&#45;&gt;shop/InsertCart.ts -->
<g id="edge39" class="edge">
<title>shop/InsertCartController.ts&#45;&gt;shop/InsertCart.ts</title>
<path fill="none" stroke="#757575" d="M352.3,-399.7C377.57,-390.71 413.87,-378.12 446,-368.21 458.96,-364.21 473,-360.18 486.21,-356.53"/>
<polygon fill="#757575" stroke="#757575" points="487.39,-359.83 496.11,-353.81 485.54,-353.08 487.39,-359.83"/>
</g>
<!-- shop/InsertCartController.ts&#45;&gt;shop/views/MiniCartRenderer.ts -->
<g id="edge41" class="edge">
<title>shop/InsertCartController.ts&#45;&gt;shop/views/MiniCartRenderer.ts</title>
<path fill="none" stroke="#757575" d="M410.1,-402.02C524.61,-389.35 728.55,-363.61 900,-325.21 932.64,-317.89 968.8,-306.87 996.05,-297.96"/>
<polygon fill="#757575" stroke="#757575" points="997.26,-301.24 1005.66,-294.78 995.07,-294.6 997.26,-301.24"/>
</g>
<!-- shop/InsertCartController.ts&#45;&gt;shop/views/ProductsRenderer.ts -->
<g id="edge42" class="edge">
<title>shop/InsertCartController.ts&#45;&gt;shop/views/ProductsRenderer.ts</title>
<path fill="none" stroke="#757575" d="M382.25,-422.76C468.09,-438.82 623.15,-467.83 713.93,-484.82"/>
<polygon fill="#757575" stroke="#757575" points="713.39,-488.27 723.87,-486.67 714.68,-481.39 713.39,-488.27"/>
</g>
<!-- shop/views/ProductsRenderer.ts&#45;&gt;abstracts/AbstractRenderer.ts -->
<g id="edge52" class="edge">
<title>shop/views/ProductsRenderer.ts&#45;&gt;abstracts/AbstractRenderer.ts</title>
<path fill="none" stroke="#757575" d="M809.63,-486.62C868.7,-455.96 1035.41,-371.18 1180,-314.21 1194.97,-308.31 1211.56,-302.65 1226.68,-297.82"/>
<polygon fill="#757575" stroke="#757575" points="1227.88,-301.11 1236.37,-294.77 1225.78,-294.43 1227.88,-301.11"/>
</g>
<!-- shop/views/ProductsRenderer.ts&#45;&gt;shop/data/products.ts -->
<g id="edge53" class="edge">
<title>shop/views/ProductsRenderer.ts&#45;&gt;shop/data/products.ts</title>
<path fill="none" stroke="#757575" d="M891.66,-494.3C964.93,-488.35 1063.81,-473.73 1144,-438.21 1190.25,-417.71 1234.41,-377.27 1258.09,-353.3"/>
<polygon fill="#757575" stroke="#757575" points="1260.86,-355.47 1265.31,-345.86 1255.83,-350.6 1260.86,-355.47"/>
</g>
<!-- shop/views/ProductsRenderer.ts&#45;&gt;utils/index.ts -->
<g id="edge54" class="edge">
<title>shop/views/ProductsRenderer.ts&#45;&gt;utils/index.ts</title>
<path fill="none" stroke="#757575" d="M823.8,-509.75C868.47,-523.96 944.36,-548.1 993.05,-563.59"/>
<polygon fill="#757575" stroke="#757575" points="992.12,-566.97 1002.71,-566.66 994.24,-560.29 992.12,-566.97"/>
</g>
</g>
</svg>
